<?xml version="1.0" encoding="UTF-8" standalone="no"?>
<!-- Created with Inkscape (http://www.inkscape.org/) -->

<svg
   xmlns:dc="http://purl.org/dc/elements/1.1/"
   xmlns:cc="http://creativecommons.org/ns#"
   xmlns:rdf="http://www.w3.org/1999/02/22-rdf-syntax-ns#"
   xmlns:svg="http://www.w3.org/2000/svg"
   xmlns="http://www.w3.org/2000/svg"
   xmlns:sodipodi="http://sodipodi.sourceforge.net/DTD/sodipodi-0.dtd"
   xmlns:inkscape="http://www.inkscape.org/namespaces/inkscape"
   width="512"
   height="512"
   id="svg2"
   version="1.1"
   inkscape:version="0.48.3.1 r9886"
   sodipodi:docname="icon_trainer.svg"
   inkscape:export-filename="/home/zaphy/sites/BAT/public/src/icon_trainer_32.png"
   inkscape:export-xdpi="5.8536587"
   inkscape:export-ydpi="5.8536587">
  <defs
     id="defs4">
    <marker
       inkscape:stockid="Arrow1Mend"
       orient="auto"
       refY="0.0"
       refX="0.0"
       id="Arrow1Mend"
       style="overflow:visible;">
      <path
         id="path3945"
         d="M 0.0,0.0 L 5.0,-5.0 L -12.5,0.0 L 5.0,5.0 L 0.0,0.0 z "
         style="fill-rule:evenodd;stroke:#000000;stroke-width:1.0pt;"
         transform="scale(0.4) rotate(180) translate(10,0)" />
    </marker>
    <marker
       inkscape:stockid="Arrow1Sstart"
       orient="auto"
       refY="0.0"
       refX="0.0"
       id="Arrow1Sstart"
       style="overflow:visible">
      <path
         id="path3948"
         d="M 0.0,0.0 L 5.0,-5.0 L -12.5,0.0 L 5.0,5.0 L 0.0,0.0 z "
         style="fill-rule:evenodd;stroke:#000000;stroke-width:1.0pt"
         transform="scale(0.2) translate(6,0)" />
    </marker>
    <marker
       inkscape:stockid="Arrow1Lstart"
       orient="auto"
       refY="0.0"
       refX="0.0"
       id="Arrow1Lstart"
       style="overflow:visible">
      <path
         id="path3936"
         d="M 0.0,0.0 L 5.0,-5.0 L -12.5,0.0 L 5.0,5.0 L 0.0,0.0 z "
         style="fill-rule:evenodd;stroke:#000000;stroke-width:1.0pt"
         transform="scale(0.8) translate(12.5,0)" />
    </marker>
    <marker
       inkscape:stockid="Arrow1Lend"
       orient="auto"
       refY="0.0"
       refX="0.0"
       id="Arrow1Lend"
       style="overflow:visible;">
      <path
         id="path3939"
         d="M 0.0,0.0 L 5.0,-5.0 L -12.5,0.0 L 5.0,5.0 L 0.0,0.0 z "
         style="fill-rule:evenodd;stroke:#000000;stroke-width:1.0pt;"
         transform="scale(0.8) rotate(180) translate(12.5,0)" />
    </marker>
  </defs>
  <sodipodi:namedview
     id="base"
     pagecolor="#ffffff"
     bordercolor="#666666"
     borderopacity="1.0"
     inkscape:pageopacity="0.0"
     inkscape:pageshadow="2"
     inkscape:zoom="0.44822485"
     inkscape:cx="315.88375"
     inkscape:cy="2.9660255"
     inkscape:document-units="px"
     inkscape:current-layer="g5811"
     showgrid="false"
     inkscape:window-width="1920"
     inkscape:window-height="1056"
     inkscape:window-x="0"
     inkscape:window-y="24"
     inkscape:window-maximized="1"
     showguides="false"
     inkscape:guide-bbox="true">
    <inkscape:grid
       type="xygrid"
       id="grid2985"
       empspacing="5"
       visible="true"
       enabled="true"
       snapvisiblegridlinesonly="true" />
    <sodipodi:guide
       orientation="1,0"
       position="40,-30"
       id="guide3776" />
    <sodipodi:guide
       orientation="1,0"
       position="470,-90"
       id="guide3778" />
    <sodipodi:guide
       orientation="0,1"
       position="340,40"
       id="guide3780" />
    <sodipodi:guide
       orientation="0,1"
       position="440,470"
       id="guide3782" />
    <sodipodi:guide
       orientation="1,0"
       position="255,-25"
       id="guide3784" />
    <sodipodi:guide
       orientation="0,1"
       position="-55,255"
       id="guide3796" />
  </sodipodi:namedview>
  <metadata
     id="metadata7">
    <rdf:RDF>
      <cc:Work
         rdf:about="">
        <dc:format>image/svg+xml</dc:format>
        <dc:type
           rdf:resource="http://purl.org/dc/dcmitype/StillImage" />
        <dc:title></dc:title>
      </cc:Work>
    </rdf:RDF>
  </metadata>
  <g
     inkscape:label="Background"
     inkscape:groupmode="layer"
     id="layer1"
     transform="translate(0,-540.36218)"
     sodipodi:insensitive="true">
    <rect
       style="fill:#ffffff;fill-opacity:1;fill-rule:evenodd;stroke:#000000;stroke-width:2;stroke-linecap:butt;stroke-linejoin:miter;stroke-miterlimit:4;stroke-opacity:1;stroke-dasharray:none"
       id="rect3006"
       width="490"
       height="490"
       x="10"
       y="12"
       rx="30"
       ry="30"
       transform="translate(0,540.36218)" />
  </g>
  <g
     inkscape:groupmode="layer"
     id="layer2"
     inkscape:label="content">
    <g
       id="g5756"
       transform="matrix(0.48677248,0,0,0.44444444,513.22752,-248.88889)">
      <g
         id="g5811"
         transform="translate(2.0543816,1921.5)">
        <g
           transform="matrix(0,-2.25,2.0543479,0,102.24999,-1521.8564)"
           id="g3853">
          <rect
             style="fill:none;stroke:#000000;stroke-width:6;stroke-miterlimit:4;stroke-opacity:1;stroke-dasharray:none"
             id="rect3818"
             width="200"
             height="400"
             x="-467.5"
             y="-508"
             rx="15"
             ry="15" />
          <g
             id="g3826"
             style="stroke-width:6;stroke-miterlimit:4;stroke-dasharray:none">
            <g
               id="g3832"
               style="stroke-width:6;stroke-miterlimit:4;stroke-dasharray:none">
              <path
                 style="fill:none;stroke:#000000;stroke-width:6;stroke-linecap:butt;stroke-linejoin:miter;stroke-miterlimit:4;stroke-opacity:1;stroke-dasharray:none"
                 d="M -467.26952,-308 -375,-308"
                 id="path3820"
                 inkscape:connector-curvature="0" />
              <path
                 sodipodi:type="arc"
                 style="fill:none;stroke:#000000;stroke-width:6;stroke-miterlimit:4;stroke-opacity:1;stroke-dasharray:none"
                 id="path3824"
                 sodipodi:cx="-667.5"
                 sodipodi:cy="-325.5"
                 sodipodi:rx="7.5"
                 sodipodi:ry="7.5"
                 d="m -660,-325.5 c 0,4.14214 -3.35786,7.5 -7.5,7.5 -4.14214,0 -7.5,-3.35786 -7.5,-7.5 0,-4.14214 3.35786,-7.5 7.5,-7.5 4.14214,0 7.5,3.35786 7.5,7.5 z"
                 transform="translate(300,17.5)" />
              <path
                 inkscape:connector-curvature="0"
                 id="path3830"
                 d="m -360,-308 92.26952,0"
                 style="fill:none;stroke:#000000;stroke-width:6;stroke-linecap:butt;stroke-linejoin:miter;stroke-miterlimit:4;stroke-opacity:1;stroke-dasharray:none" />
            </g>
          </g>
          <g
             id="g3841"
             transform="matrix(1.0416667,0,0,1.0526316,-275.83333,101.73685)">
            <rect
               ry="0"
               rx="0"
               y="-258"
               x="-110"
               height="34"
               width="44"
               id="rect3837"
               style="fill:none;stroke:#000000;stroke-width:3.81994748;stroke-miterlimit:4;stroke-opacity:1;stroke-dasharray:none" />
            <rect
               style="fill:none;stroke:#000000;stroke-width:3.81994724;stroke-miterlimit:4;stroke-opacity:1;stroke-dasharray:none"
               id="rect3839"
               width="26"
               height="9"
               x="-101"
               y="-242"
               rx="0"
               ry="0" />
          </g>
          <g
             transform="matrix(-1.0416667,0,0,-1.0526316,-459.16667,-718.78948)"
             id="g3847">
            <rect
               style="fill:none;stroke:#000000;stroke-width:3.81994748;stroke-miterlimit:4;stroke-opacity:1;stroke-dasharray:none"
               id="rect3849"
               width="44"
               height="34"
               x="-110"
               y="-258"
               rx="0"
               ry="0" />
            <rect
               ry="0"
               rx="0"
               y="-242"
               x="-101"
               height="9"
               width="26"
               id="rect3851"
               style="fill:none;stroke:#000000;stroke-width:3.81994724;stroke-miterlimit:4;stroke-opacity:1;stroke-dasharray:none" />
          </g>
        </g>
        <rect
           ry="28.129456"
           rx="25.81118"
           y="-1160.5594"
           x="-995.09045"
           height="750.11884"
           width="929.20258"
           id="rect3886"
           style="fill:none;stroke:#000000;stroke-width:17.19959641;stroke-miterlimit:4;stroke-opacity:1;stroke-dasharray:none" />
        <g
           transform="matrix(2.0543479,0,0,2.25,-1054.3479,560.00001)"
           id="g3900">
          <rect
             style="fill:none;stroke:#000000;stroke-width:7.99999995;stroke-miterlimit:4;stroke-opacity:1;stroke-dasharray:none"
             id="rect3888"
             width="200"
             height="40.000027"
             x="155"
             y="-738.00006"
             rx="0"
             ry="0" />
          <g
             id="g3896"
             style="stroke-width:7.99999995;stroke-miterlimit:4;stroke-dasharray:none">
            <path
               transform="translate(-500,-55)"
               d="m 680,-663 c 0,2.76142 -2.23858,5 -5,5 -2.76142,0 -5,-2.23858 -5,-5 0,-2.76142 2.23858,-5 5,-5 2.76142,0 5,2.23858 5,5 z"
               sodipodi:ry="5"
               sodipodi:rx="5"
               sodipodi:cy="-663"
               sodipodi:cx="675"
               id="path3892"
               style="fill:none;stroke:#000000;stroke-width:7.99999995;stroke-miterlimit:4;stroke-opacity:1;stroke-dasharray:none"
               sodipodi:type="arc" />
            <path
               sodipodi:type="arc"
               style="fill:none;stroke:#000000;stroke-width:7.99999995;stroke-miterlimit:4;stroke-opacity:1;stroke-dasharray:none"
               id="path3894"
               sodipodi:cx="675"
               sodipodi:cy="-663"
               sodipodi:rx="5"
               sodipodi:ry="5"
               d="m 680,-663 c 0,2.76142 -2.23858,5 -5,5 -2.76142,0 -5,-2.23858 -5,-5 0,-2.76142 2.23858,-5 5,-5 2.76142,0 5,2.23858 5,5 z"
               transform="translate(-340,-55)" />
          </g>
        </g>
        <g
           transform="matrix(2.0543479,0,0,2.25,-1054.3479,560.00001)"
           id="g5745">
          <path
             style="fill:none;stroke:#000000;stroke-width:3;stroke-linecap:butt;stroke-linejoin:miter;stroke-miterlimit:4;stroke-opacity:1;stroke-dasharray:none;marker-start:none;marker-end:none"
             d="m 355,-633 c -0.0968,-0.33557 -0.33538,-2.89541 -1.38284,-3.41914 -0.30257,-0.15129 -2.07841,0.15261 -2.23102,0 -0.13147,-0.13147 0.13146,-0.42629 0,-0.55776 -0.13421,-0.13421 -2.09681,0.13422 -2.23102,0 -0.13147,-0.13146 0.13146,-0.42629 0,-0.55775 -0.19579,-0.19579 -2.40352,0.19263 -2.78878,0 -0.23517,-0.11759 -0.32259,-0.44017 -0.55776,-0.55776 -0.16629,-0.0832 -0.37184,0 -0.55775,0 -0.18592,0 -0.37184,0 -0.55776,0 -0.92959,0 -1.85919,0 -2.78878,0 -0.18592,0 -0.37184,0 -0.55776,0 -0.18591,0 -0.42629,0.13146 -0.55775,0 -0.13147,-0.13146 0.13146,-0.42629 0,-0.55776 -0.13147,-0.13146 -0.37184,0 -0.55776,0 -0.18592,0 -0.37183,0 -0.55775,0 -1.11551,0 -2.23103,0 -3.34654,0 -0.18592,0 -0.42629,0.13147 -0.55775,0 -0.13147,-0.13146 0.13146,-0.42629 0,-0.55775 -0.13147,-0.13147 -0.37184,0 -0.55776,0 -1.11551,0 -2.23102,0 -3.34653,0 -0.18592,0 -0.37184,0 -0.55776,0 -0.18592,0 -0.42629,0.13146 -0.55775,0 -0.13147,-0.13147 0.13146,-0.42629 0,-0.55776 -0.13147,-0.13146 -0.37184,0 -0.55776,0 -0.18592,0 -0.37184,0 -0.55776,0 -2.0451,0 -4.09021,0 -6.13531,0 -0.92959,0 -1.85919,0 -2.78878,0 -0.18592,0 -0.37184,0 -0.55775,0 -0.18592,0 -0.39147,-0.0831 -0.55776,0 -0.23517,0.11759 -0.32259,0.44017 -0.55776,0.55776 -0.2017,0.10085 -2.40083,0 -2.78878,0 -0.18591,0 -0.42629,-0.13147 -0.55775,0 -0.13147,0.13146 0.13146,0.42629 0,0.55775 -0.15262,0.15262 -1.92845,-0.15128 -2.23102,0 -0.23517,0.11759 -0.32259,0.44017 -0.55776,0.55776 -0.35056,0.17528 -1.88046,-0.17528 -2.23102,0 -0.23517,0.11759 -0.32259,0.44017 -0.55776,0.55776 -0.30257,0.15128 -2.07841,-0.15262 -2.23102,0 -0.13147,0.13146 0.13146,0.42629 0,0.55775 -0.13147,0.13147 -0.37184,0 -0.55776,0 -0.18592,0 -0.37183,0 -0.55775,0 -0.13527,0 -1.65533,-0.0179 -1.67327,0 -0.13146,0.13147 0.13146,0.42629 0,0.55776 -0.13146,0.13146 -0.37184,0 -0.55776,0 -0.92959,0 -1.85918,0 -2.78878,0 -1.48734,0 0.18592,-0.18592 -0.55775,0.55775 -0.13147,0.13147 -0.37184,0 -0.55776,0 -0.39534,0 -3.20232,-0.0721 -3.34653,0 -0.23517,0.11759 -0.32259,0.44017 -0.55776,0.55776 -0.16629,0.0831 -0.37183,0 -0.55775,0 -0.18592,0 -0.37184,0 -0.55776,0 -0.92959,0 -1.85918,0 -2.78878,0 -3.16061,0 -6.32123,0 -9.48185,0 -0.92959,0 -1.85918,0 -2.78877,0 -0.18592,0 -0.4263,-0.13147 -0.55776,0 -0.13146,0.13146 0.13146,0.42629 0,0.55775 -0.13146,0.13147 -0.37184,0 -0.55776,0 -0.92959,0 -1.85918,0 -2.78878,0 -6.69306,0 -13.38613,0 -20.0792,0 -7.9945,0 -15.989,0 -23.9835,0 -3.16062,0 -6.32123,0 -9.48185,0 -0.92959,0 -1.85919,0 -2.78878,0 -0.37184,0 -0.74367,0 -1.11551,0 -0.18592,0 -0.55776,0.18592 -0.55776,0 0,-0.18591 0.44352,-0.14668 0.55776,0 0.39351,0.50527 0.53465,1.16392 0.80198,1.74588"
             id="path3926"
             inkscape:connector-curvature="0" />
          <g
             transform="matrix(0.84245067,-0.53877348,0.53877348,0.84245067,771.95369,-188.86965)"
             id="g5690">
            <path
               style="fill:none;stroke:#000000;stroke-width:3;stroke-linecap:butt;stroke-linejoin:miter;stroke-miterlimit:4;stroke-opacity:1;stroke-dasharray:none"
               d="m -123.26403,-605.74257 c 0.24944,0.33258 0.2638,0.82154 0.55776,1.11551 0.474,0.474 1.19927,0.64151 1.67327,1.11551 0.474,0.474 0.64151,1.19926 1.11551,1.67327 0.474,0.474 1.27106,0.57924 1.67327,1.11551 0.2231,0.29747 -0.22311,0.81804 0,1.11551 0.4022,0.53627 1.14982,0.69675 1.67326,1.11551 1.02657,0.82125 1.77885,1.94717 2.78878,2.78878 0.51497,0.42914 1.1583,0.68637 1.67327,1.11551 1.60926,1.34105 2.85278,3.12099 4.46205,4.46205 1.02993,0.85828 2.39853,1.28302 3.34653,2.23102 0.474,0.474 0.57924,1.27106 1.11551,1.67327 0.29747,0.2231 0.79667,-0.19131 1.11551,0 0.67638,0.40582 1.06731,1.1683 1.67327,1.67326 0.514969,0.42915 1.158299,0.68638 1.673268,1.11552 0.605962,0.50496 1.067305,1.1683 1.673267,1.67326 0.514969,0.42914 1.158299,0.68637 1.673267,1.11552"
               id="path5692"
               inkscape:connector-curvature="0"
               sodipodi:nodetypes="ccsscccsssscccssc" />
            <path
               style="fill:none;stroke:#000000;stroke-width:3;stroke-linecap:butt;stroke-linejoin:miter;stroke-miterlimit:4;stroke-opacity:1;stroke-dasharray:none"
               d="m -97.049505,-602.9538 c -0.43754,0.2917 -0.645171,0.88035 -1.115512,1.11552 -0.332581,0.16629 -0.78293,-0.1663 -1.115511,0 -0.940682,0.47034 -1.290342,1.76068 -2.231022,2.23102 -0.33258,0.16629 -0.85258,-0.26293 -1.11551,0 -0.26293,0.26293 0.26293,0.85258 0,1.11551 -0.26293,0.26293 -0.78293,-0.16629 -1.11551,0 -0.94069,0.47034 -1.35595,1.64764 -2.23103,2.23102 -0.15469,0.10313 -0.40306,-0.10313 -0.55775,0 -2.2099,-0.11135 -0.52759,1.6431 -1.11551,2.23103 -0.26293,0.26293 -0.75478,-0.0902 -1.11552,0 -0.40331,0.10082 -0.78293,0.30832 -1.11551,0.55775 -0.42068,0.31552 -0.8,0.69483 -1.11551,1.11551 -0.24944,0.33259 -0.21185,0.88491 -0.55776,1.11552 -0.30938,0.20625 -0.78293,-0.1663 -1.11551,0 -0.47034,0.23517 -0.69482,0.79999 -1.11551,1.11551 -0.33258,0.24943 -0.78293,0.30832 -1.11551,0.55775 -0.42069,0.31552 -0.67797,0.82382 -1.11551,1.11551 -0.1547,0.10313 -0.40306,-0.10312 -0.55776,0 -0.43754,0.2917 -0.64517,0.88035 -1.11551,1.11552 -0.33258,0.16629 -0.78293,-0.16629 -1.11551,0 -4.64249,2.32124 1.19252,-0.077 -1.11551,2.23102 -0.26293,0.26293 -0.76276,-0.11759 -1.11551,0 -0.24944,0.0831 -0.30832,0.47461 -0.55776,0.55775"
               id="path5694"
               inkscape:connector-curvature="0"
               sodipodi:nodetypes="cscssssccsccsccccscssscc" />
          </g>
          <path
             style="fill:none;stroke:#000000;stroke-width:3;stroke-linecap:butt;stroke-linejoin:miter;stroke-miterlimit:4;stroke-opacity:1;stroke-dasharray:12, 12;stroke-dashoffset:0"
             d="m 215,-628 c -1.38944,-0.76128 -2.70453,-1.67768 -4.16832,-2.28383 -0.17177,-0.0711 0.13147,0.42629 0,0.55776 -0.13146,0.13146 -0.37183,0 -0.55775,0 -0.18592,0 -0.37184,0 -0.55776,0 -0.38794,0 -2.58707,-0.10085 -2.78878,0 -0.23517,0.11758 -0.32258,0.44017 -0.55775,0.55775 -0.14421,0.0721 -2.9512,0 -3.34654,0 -0.18592,0 -0.42629,-0.13146 -0.55775,0 -0.29397,0.29397 -0.2638,0.82155 -0.55776,1.11551 -0.13146,0.13147 -0.37184,0 -0.55775,0 -1.11552,0 -2.23103,0 -3.34654,0 -0.92959,0 -1.85919,0 -2.78878,0 -0.18592,0 -0.42629,-0.13146 -0.55775,0 -0.13147,0.13147 0.13146,0.4263 0,0.55776 -0.0224,0.0224 -2.0262,0 -2.23103,0 -2.41694,0 -4.83388,0 -7.25082,0 -0.18592,0 -0.37184,0 -0.55776,0 -0.18592,0 -0.42629,-0.13146 -0.55775,0 -0.13147,0.13146 0.13146,0.42629 0,0.55776 -0.13147,0.13146 -0.37184,0 -0.55776,0 -0.18592,0 -0.37184,0 -0.55776,0 -1.48734,0 -2.97469,0 -4.46204,0 -0.18592,0 -0.37184,0 -0.55776,0 -0.18592,0 -0.42629,-0.13147 -0.55775,0 -0.13147,0.13146 0.13146,0.42629 0,0.55775 -0.13147,0.13147 -0.37184,0 -0.55776,0 -0.18592,0 -0.37184,0 -0.55775,0 -1.30143,0 -2.60287,0 -3.9043,0 -0.18591,0 -0.42629,-0.13146 -0.55775,0 -0.13147,0.13147 0.13146,0.42629 0,0.55776 -0.13147,0.13146 -0.37184,0 -0.55776,0 -0.18592,0 -0.37183,0 -0.55775,0 -0.9296,0 -1.85919,0 -2.78878,0 -0.18592,0 -0.37184,0 -0.55776,0 -0.18592,0 -0.39146,-0.0832 -0.55775,0 -0.23517,0.11758 -0.32259,0.44017 -0.55776,0.55775 -0.35187,0.17594 -2.43691,-0.17593 -2.78878,0 -0.23517,0.11759 -0.32258,0.44017 -0.55775,0.55776 -0.30258,0.15129 -2.07841,-0.15262 -2.23103,0 -0.13146,0.13146 0.13147,0.42629 0,0.55775 -0.13421,0.13422 -2.09681,-0.13421 -2.23102,0 -0.13146,0.13147 0.13146,0.4263 0,0.55776 -0.17271,0.17271 -2.61607,-0.17271 -2.78878,0 -0.13146,0.13146 0.13147,0.42629 0,0.55776 -0.17271,0.1727 -2.61607,-0.17271 -2.78878,0 -0.13146,0.13146 0.13147,0.42629 0,0.55775 -0.11402,0.11403 -1.45212,-0.11057 -1.67326,0 -0.23518,0.11759 -0.32259,0.44017 -0.55776,0.55776 -0.22115,0.11057 -1.55924,-0.11403 -1.67327,0 -0.13146,0.13146 0.13147,0.42629 0,0.55775 -0.13421,0.13422 -2.09681,-0.13421 -2.23102,0 -0.13147,0.13147 0.13146,0.42629 0,0.55776 -0.13421,0.13421 -2.09681,-0.13421 -2.23102,0 -0.13147,0.13146 0.13146,0.42629 0,0.55775 -0.13422,0.13422 -2.09681,-0.13421 -2.23103,0 -0.13146,0.13147 0.13147,0.4263 0,0.55776 -0.27888,0.27888 -1.39439,-0.27888 -1.67326,0 -0.13147,0.13147 0.13146,0.42629 0,0.55776 -0.13422,0.13421 -2.09681,-0.13422 -2.23103,0 -0.13146,0.13146 0.13147,0.42629 0,0.55775 -0.11402,0.11403 -1.45212,-0.11057 -1.67326,0 -0.23518,0.11759 -0.32259,0.44017 -0.55776,0.55776 -0.22115,0.11057 -1.55924,-0.11403 -1.67327,0 -0.13146,0.13146 0.13147,0.42629 0,0.55775 -0.11402,0.11403 -1.45212,-0.11057 -1.67327,0 -0.23517,0.11759 -0.32258,0.44017 -0.55775,0.55776 -0.22115,0.11057 -1.55924,-0.11403 -1.67327,0 -0.13146,0.13146 0.13147,0.42629 0,0.55776 -0.26293,0.26292 -0.78293,-0.1663 -1.11551,0 -0.23517,0.11758 -0.32259,0.44017 -0.55776,0.55775 -0.33258,0.16629 -0.78293,-0.16629 -1.11551,0 -0.23517,0.11759 -0.32258,0.44017 -0.55775,0.55776 -0.33258,0.16629 -0.85259,-0.26293 -1.11551,0 -0.13147,0.13146 0.13146,0.42629 0,0.55775 -0.27888,0.27888 -1.39439,-0.27888 -1.67327,0 -0.13147,0.13147 0.13146,0.42629 0,0.55776 -0.26293,0.26293 -0.78293,-0.16629 -1.11551,0 -0.23517,0.11758 -0.32259,0.44017 -0.55776,0.55775 -0.33258,0.16629 -0.78293,-0.16629 -1.11551,0 -0.23517,0.11759 -0.32259,0.44017 -0.55776,0.55776 -0.33258,0.16629 -0.85258,-0.26293 -1.11551,0 -0.13146,0.13146 0.13147,0.42629 0,0.55776 -0.26293,0.26292 -0.85258,-0.26293 -1.11551,0 -0.13146,0.13146 0.13146,0.42629 0,0.55775 -0.26293,0.26293 -0.78293,-0.16629 -1.11551,0 -0.23517,0.11759 -0.32259,0.44017 -0.55776,0.55776 -0.33258,0.16629 -0.85258,-0.26293 -1.11551,0 -0.13146,0.13146 0.13147,0.42629 0,0.55775 -0.26293,0.26293 -0.85258,-0.26293 -1.11551,0 -0.13146,0.13147 0.13146,0.42629 0,0.55776 -0.26293,0.26293 -0.78293,-0.16629 -1.11551,0 -1.84984,1.84984 0.52586,-0.26293 -1.11551,0.55775 -0.23517,0.11759 -0.32259,0.44018 -0.55776,0.55776 -0.16629,0.0832 -0.42629,-0.13146 -0.55775,0 -0.13147,0.13146 0.13146,0.42629 0,0.55776 -0.26293,0.26292 -0.78294,-0.16629 -1.11552,0 -0.23517,0.11758 -0.32258,0.44017 -0.55775,0.55775 -0.16629,0.0832 -0.42629,-0.13146 -0.55776,0 -0.13146,0.13147 0.13147,0.42629 0,0.55776 -0.26293,0.26293 -0.78293,-0.16629 -1.11551,0 -0.23517,0.11758 -0.32258,0.44017 -0.55776,0.55775 -0.16629,0.0831 -0.39146,-0.0831 -0.55775,0 -1.84984,1.84985 0.52586,-0.26292 -1.11551,0.55776 -0.23517,0.11758 -0.32259,0.44017 -0.55776,0.55776 -0.33258,0.16629 -0.85258,-0.26293 -1.11551,0 -0.13146,0.13146 0.13146,0.42629 0,0.55775 -0.26293,0.26293 -0.85258,-0.26293 -1.11551,0 -0.13147,0.13147 0.13146,0.42629 0,0.55776 -0.26293,0.26293 -0.78293,-0.16629 -1.11551,0 -0.23517,0.11758 -0.32259,0.44017 -0.55776,0.55775 -0.33258,0.16629 -0.85258,-0.26293 -1.11551,0 -0.13146,0.13147 0.13146,0.42629 0,0.55776 -0.26293,0.26293 -0.852583,-0.26293 -1.115512,0 -0.131464,0.13146 0.131464,0.42629 0,0.55775 -0.262928,0.26293 -0.78293,-0.16629 -1.115511,0 -0.235171,0.11759 -0.322586,0.44017 -0.557756,0.55776 -0.166291,0.0831 -0.391465,-0.0832 -0.557756,0 -0.23517,0.11759 -0.322585,0.44017 -0.557756,0.55776 -0.332581,0.16629 -0.852583,-0.26293 -1.115511,0 -0.131465,0.13146 0.131464,0.42629 0,0.55775 -0.262929,0.26293 -0.852583,-0.26293 -1.115512,0 -0.131464,0.13147 0.131464,0.42629 0,0.55776 -0.262928,0.26293 -0.852583,-0.26293 -1.115511,0 -0.131465,0.13146 0.131464,0.42629 0,0.55775 -0.262929,0.26293 -0.852583,-0.26293 -1.115512,0 -0.131464,0.13147 0.131464,0.42629 0,0.55776 -0.262929,0.26293 -0.852583,-0.26293 -1.115512,0 -0.131464,0.13146 0.131465,0.42629 0,0.55775 -0.262928,0.26293 -0.852582,-0.26292 -1.115511,0 -0.131464,0.13147 0.131464,0.4263 0,0.55776 -0.262929,0.26293 -0.852583,-0.26293 -1.115512,0 -0.131464,0.13146 0.131465,0.42629 0,0.55776 -0.262928,0.26292 -0.852583,-0.26293 -1.115511,0 -0.131464,0.13146 0.131464,0.42629 0,0.55775 -0.131464,0.13147 -0.391465,-0.0831 -0.557756,0 -0.23517,0.11759 -0.322585,0.44017 -0.557756,0.55776 -0.16629,0.0831 -0.426291,-0.13147 -0.557756,0 -0.131464,0.13146 0.131465,0.42629 0,0.55775 -0.262928,0.26293 -0.852582,-0.26293 -1.115511,0 -0.131464,0.13147 0.131464,0.42629 0,0.55776 -0.262929,0.26293 -0.852583,-0.26293 -1.115512,0 -0.131464,0.13146 0.131465,0.42629 0,0.55775 -0.262928,0.26293 -0.852583,-0.26292 -1.115511,0 -0.131464,0.13147 0.131464,0.4263 0,0.55776 -0.262929,0.26293 -0.852583,-0.26293 -1.115512,0 -0.131464,0.13146 0.131465,0.42629 0,0.55776 -0.262928,0.26293 -0.852583,-0.26293 -1.115511,0 -0.131465,0.13146 0.131464,0.42629 0,0.55775 -0.131465,0.13147 -0.426292,-0.13146 -0.557756,0 -0.131464,0.13147 0.131464,0.42629 0,0.55776 -0.131464,0.13146 -0.426292,-0.13147 -0.557756,0 -0.131464,0.13146 0.131464,0.42629 0,0.55775 -0.262928,0.26293 -0.852583,-0.26292 -1.115511,0 -0.131465,0.13147 -0.176226,0.61701 0,0.55776 C 78.799844,-592.03874 79.361936,-592.59956 80,-593"
             id="path5708"
             inkscape:connector-curvature="0" />
        </g>
        <g
           transform="matrix(2.0543479,0,0,2.25,-1054.3479,560.00001)"
           id="g5738">
          <path
             style="fill:none;stroke:#000000;stroke-width:3;stroke-linecap:butt;stroke-linejoin:miter;stroke-miterlimit:4;stroke-opacity:1;stroke-dasharray:18, 18;stroke-dashoffset:0"
             d="m 275,-578 c 0.73487,-0.32343 1.88119,-1.70517 2.20462,-0.9703 0.32343,0.73488 -2.77236,1.53804 -2.20462,0.9703 0.74408,-0.74408 1.87134,-0.96828 2.76238,-1.52805 0.44527,-0.27974 0.64517,-0.88034 1.11551,-1.11551 0.16629,-0.0832 0.42629,0.13146 0.55775,0 0.13147,-0.13147 -0.13146,-0.4263 0,-0.55776 0.13147,-0.13147 0.4263,0.13146 0.55776,0 0.13146,-0.13147 -0.13146,-0.42629 0,-0.55776 0.13146,-0.13146 0.39146,0.0832 0.55776,0 0.22528,-0.11264 2.2143,-2.2143 2.23102,-2.23102 0.18592,-0.18592 0.32258,-0.44017 0.55775,-0.55776 1.48735,0 -0.18591,0.18592 0.55776,-0.55775 0.13146,-0.13147 0.42629,0.13146 0.55776,0 0.13146,-0.13147 -0.13147,-0.42629 0,-0.55776 0.13146,-0.13146 0.42629,0.13147 0.55775,0 0.13147,-0.13146 -0.13146,-0.42629 0,-0.55775 0.13147,-0.13147 0.39147,0.0831 0.55776,0 0.23517,-0.11759 0.37183,-0.37184 0.55775,-0.55776 0.37184,0 0.78293,0.16629 1.11551,0 0.1663,-0.0831 -0.0588,-0.38138 0,-0.55775 0.13147,-0.3944 0.2638,-0.82155 0.55776,-1.11552 0.29396,-0.29396 0.72112,-0.42629 1.11551,-0.55775 0.17638,-0.0588 0.42629,0.13146 0.55776,0 0.13146,-0.13147 -0.13147,-0.42629 0,-0.55776 0.13146,-0.13146 0.42629,0.13147 0.55775,0 0.13147,-0.13146 -0.13146,-0.42629 0,-0.55775 0.13147,-0.13147 0.42629,0.13146 0.55776,0 0.13146,-0.13147 0,-0.37184 0,-0.55776 0.18592,0 0.39146,0.0832 0.55776,0 2.32124,-1.16062 -0.59627,0.0385 0.55775,-1.11551 0.13147,-0.13146 0.39147,0.0831 0.55776,0 2.32124,-1.16062 -0.59626,0.0385 0.55775,-1.11551 0.13147,-0.13147 0.42629,0.13146 0.55776,0 0.13146,-0.13147 -0.13147,-0.42629 0,-0.55776 0.13146,-0.13146 0.39146,0.0832 0.55775,0 0.23517,-0.11758 0.37184,-0.37183 0.55776,-0.55775 0.32804,-0.32804 1.97274,-2.10188 2.23102,-2.23103 0.16629,-0.0831 0.42629,0.13147 0.55776,0 0.13146,-0.13146 -0.0832,-0.39146 0,-0.55775 1.16062,-2.32125 -0.0385,0.59626 1.11551,-0.55776 0.13146,-0.13146 -0.13146,-0.42629 0,-0.55775 0.13146,-0.13147 0.42629,0.13146 0.55776,0 0.13146,-0.13147 -0.0832,-0.39147 0,-0.55776 0.23517,-0.47034 0.88034,-0.64517 1.11551,-1.11551 0.0831,-0.16629 -0.13147,-0.42629 0,-0.55776 0.13146,-0.13146 0.42629,0.13147 0.55775,0 1.5705,-0.0346 0.14203,-1.25754 0.55776,-1.67326 0.13146,-0.13147 0.42629,0.13146 0.55775,0 0.13147,-0.13147 -0.13146,-0.4263 0,-0.55776 0.13147,-0.13146 0.4263,0.13146 0.55776,0 0.13146,-0.13146 -0.16629,-0.47461 0,-0.55776 0.33258,-0.16629 0.85258,0.26293 1.11551,0 0.26293,-0.26292 -0.11758,-0.76275 0,-1.11551 0.16629,-0.49887 0.88034,-0.64517 1.11551,-1.11551 0.0831,-0.16629 -0.13146,-0.42629 0,-0.55775 0.13147,-0.13147 0.4263,0.13146 0.55776,0 0.13146,-0.13147 -0.0831,-0.39147 0,-0.55776 0.11758,-0.23517 0.44017,-0.32259 0.55776,-0.55776 0.0831,-0.16629 -0.13147,-0.42629 0,-0.55775 0.13146,-0.13147 0.42629,0.13146 0.55775,0 0.13147,-0.13147 -0.10313,-0.40306 0,-0.55776 0.29169,-0.43754 0.82382,-0.67797 1.11551,-1.11551 0.10313,-0.15469 -0.13146,-0.42629 0,-0.55776 0.13147,-0.13146 0.42629,0.13147 0.55776,0 0.13146,-0.13146 0,-0.37183 0,-0.55775 0,-0.37184 -0.16629,-0.78293 0,-1.11551 0.0831,-0.16629 0.42629,0.13146 0.55775,0 0.13147,-0.13147 -0.0831,-0.39147 0,-0.55776 0.11759,-0.23517 0.44017,-0.32258 0.55776,-0.55775 0.0832,-0.16629 -0.13146,-0.4263 0,-0.55776 0.13146,-0.13146 0.42629,0.13146 0.55776,0 0.26292,-0.26293 -0.26293,-0.85258 0,-1.11551 0.13146,-0.13147 0.42629,0.13146 0.55775,0 0.13147,-0.13147 -0.0831,-0.39147 0,-0.55776 0.11759,-0.23517 0.44017,-0.32258 0.55776,-0.55775 0.0831,-0.16629 -0.0831,-0.39147 0,-0.55776 0.11758,-0.23517 0.44017,-0.32258 0.55775,-0.55775 0.0832,-0.1663 -0.13146,-0.4263 0,-0.55776 0.13147,-0.13146 0.42629,0.13146 0.55776,0 0.26293,-0.26293 -0.26293,-0.85258 0,-1.11551 0.13146,-0.13147 0.42629,0.13146 0.55775,0 0.13147,-0.13147 -0.13146,-0.42629 0,-0.55776 0.13147,-0.13146 0.4263,0.13147 0.55776,0 0.26293,-0.26293 -0.26293,-0.85258 0,-1.11551 0.13146,-0.13146 0.42629,0.13147 0.55776,0 0.26292,-0.26293 -0.26293,-0.85258 0,-1.11551 0.13146,-0.13147 0.42629,0.13146 0.55775,0 0.26293,-0.26293 -0.26293,-0.85258 0,-1.11551 0.13147,-0.13147 0.42629,0.13146 0.55776,0 0.26293,-0.26293 -0.26293,-0.85259 0,-1.11551 0.13146,-0.13147 0.42629,0.13146 0.55775,0 0.26293,-0.26293 -0.16629,-0.78293 0,-1.11552 0.11759,-0.23517 0.44017,-0.32258 0.55776,-0.55775 0.16629,-0.33258 -0.26293,-0.85258 0,-1.11551 0.13146,-0.13147 0.42629,0.13146 0.55775,0 0.27888,-0.27888 -0.27887,-1.39439 0,-1.67327 0.13147,-0.13146 0.4263,0.13146 0.55776,0 0.37191,-0.37191 -0.37191,-0.7436 0,-1.11551 0.13146,-0.13147 0.42629,0.13146 0.55776,0 0.27887,-0.27888 -0.27888,-1.39439 0,-1.67327 0.13146,-0.13146 0.42629,0.13147 0.55775,0 0.13147,-0.13146 0,-0.37184 0,-0.55775 0,-0.18592 0,-0.37184 0,-0.55776 0,-1.48735 -0.18592,0.18592 0.55776,-0.55776 0.13146,-0.13146 0,-0.37183 0,-0.55775 0.50715,-0.16172 1.0143,-0.32343 1.52145,-0.48515"
             id="path3912"
             inkscape:connector-curvature="0" />
          <g
             id="g5686"
             transform="translate(377.66667,28.24092)">
            <path
               sodipodi:nodetypes="ccsscccsssscccssc"
               inkscape:connector-curvature="0"
               id="path5682"
               d="m -123.26403,-605.74257 c 0.24944,0.33258 0.2638,0.82154 0.55776,1.11551 0.474,0.474 1.19927,0.64151 1.67327,1.11551 0.474,0.474 0.64151,1.19926 1.11551,1.67327 0.474,0.474 1.27106,0.57924 1.67327,1.11551 0.2231,0.29747 -0.22311,0.81804 0,1.11551 0.4022,0.53627 1.14982,0.69675 1.67326,1.11551 1.02657,0.82125 1.77885,1.94717 2.78878,2.78878 0.51497,0.42914 1.1583,0.68637 1.67327,1.11551 1.60926,1.34105 2.85278,3.12099 4.46205,4.46205 1.02993,0.85828 2.39853,1.28302 3.34653,2.23102 0.474,0.474 0.57924,1.27106 1.11551,1.67327 0.29747,0.2231 0.79667,-0.19131 1.11551,0 0.67638,0.40582 1.06731,1.1683 1.67327,1.67326 0.514969,0.42915 1.158299,0.68638 1.673268,1.11552 0.605962,0.50496 1.067305,1.1683 1.673267,1.67326 0.514969,0.42914 1.158299,0.68637 1.673267,1.11552"
               style="fill:none;stroke:#000000;stroke-width:3;stroke-linecap:butt;stroke-linejoin:miter;stroke-miterlimit:4;stroke-opacity:1;stroke-dasharray:none" />
            <path
               sodipodi:nodetypes="cscssssccsccsccccscssscc"
               inkscape:connector-curvature="0"
               id="path5684"
               d="m -97.049505,-602.9538 c -0.43754,0.2917 -0.645171,0.88035 -1.115512,1.11552 -0.332581,0.16629 -0.78293,-0.1663 -1.115511,0 -0.940682,0.47034 -1.290342,1.76068 -2.231022,2.23102 -0.33258,0.16629 -0.85258,-0.26293 -1.11551,0 -0.26293,0.26293 0.26293,0.85258 0,1.11551 -0.26293,0.26293 -0.78293,-0.16629 -1.11551,0 -0.94069,0.47034 -1.35595,1.64764 -2.23103,2.23102 -0.15469,0.10313 -0.40306,-0.10313 -0.55775,0 -2.2099,-0.11135 -0.52759,1.6431 -1.11551,2.23103 -0.26293,0.26293 -0.75478,-0.0902 -1.11552,0 -0.40331,0.10082 -0.78293,0.30832 -1.11551,0.55775 -0.42068,0.31552 -0.8,0.69483 -1.11551,1.11551 -0.24944,0.33259 -0.21185,0.88491 -0.55776,1.11552 -0.30938,0.20625 -0.78293,-0.1663 -1.11551,0 -0.47034,0.23517 -0.69482,0.79999 -1.11551,1.11551 -0.33258,0.24943 -0.78293,0.30832 -1.11551,0.55775 -0.42069,0.31552 -0.67797,0.82382 -1.11551,1.11551 -0.1547,0.10313 -0.40306,-0.10312 -0.55776,0 -0.43754,0.2917 -0.64517,0.88035 -1.11551,1.11552 -0.33258,0.16629 -0.78293,-0.16629 -1.11551,0 -4.64249,2.32124 1.19252,-0.077 -1.11551,2.23102 -0.26293,0.26293 -0.76276,-0.11759 -1.11551,0 -0.24944,0.0831 -0.30832,0.47461 -0.55776,0.55775"
               style="fill:none;stroke:#000000;stroke-width:3;stroke-linecap:butt;stroke-linejoin:miter;stroke-miterlimit:4;stroke-opacity:1;stroke-dasharray:none" />
          </g>
          <path
             style="fill:none;stroke:#000000;stroke-width:3;stroke-linecap:butt;stroke-linejoin:miter;stroke-miterlimit:4;stroke-opacity:1;stroke-dasharray:none"
             d="m 240,-548 c 0.17702,1.60657 -2.8694,1.21074 -3.51155,2.49505 -0.0831,0.16629 0.13146,0.42629 0,0.55775 -0.13147,0.13147 -0.42629,-0.13146 -0.55776,0 -0.13146,0.13147 0.13147,0.4263 0,0.55776 -0.13146,0.13146 -0.42629,-0.13146 -0.55775,0 -0.13147,0.13146 0.13146,0.42629 0,0.55776 -0.13147,0.13146 -0.42629,-0.13147 -0.55776,0 -0.13146,0.13146 0.13147,0.42629 0,0.55775 -0.13146,0.13147 -0.42629,-0.13146 -0.55775,0 -0.13147,0.13147 0.13146,0.42629 0,0.55776 -0.13147,0.13146 -0.4263,-0.13147 -0.55776,0 -0.13146,0.13146 0.13146,0.42629 0,0.55775 -0.13146,0.13147 -0.42629,-0.13146 -0.55776,0 -0.13146,0.13147 0.13147,0.4263 0,0.55776 -0.13146,0.13146 -0.42629,-0.13146 -0.55775,0 -0.13147,0.13146 0.13146,0.42629 0,0.55776 -0.13147,0.13146 -0.42629,-0.13147 -0.55776,0 -0.13146,0.13146 0.13147,0.42629 0,0.55775 -0.13146,0.13147 -0.42629,-0.13146 -0.55775,0 -0.13147,0.13147 0,0.37184 0,0.55776 -0.18592,0 -0.42629,-0.13147 -0.55776,0 -0.13146,0.13146 0.13147,0.42629 0,0.55775 -0.13146,0.13147 -0.39146,-0.0831 -0.55775,0 -0.23518,0.11759 -0.32259,0.44017 -0.55776,0.55776 -0.16629,0.0831 -0.42629,-0.13147 -0.55776,0 -0.13146,0.13146 0.13147,0.42629 0,0.55775 -0.13146,0.13147 -0.42629,-0.13146 -0.55775,0 -0.13147,0.13147 0.13146,0.4263 0,0.55776 -0.13147,0.13146 -0.42629,-0.13146 -0.55776,0 -0.13146,0.13146 0.13147,0.42629 0,0.55776 -0.26293,0.26292 -0.85258,-0.26293 -1.11551,0 -0.13146,0.13146 0.13147,0.42629 0,0.55775 -0.13146,0.13147 -0.42629,-0.13146 -0.55775,0 -0.13147,0.13147 0.13146,0.42629 0,0.55776 -0.26293,0.26293 -0.85259,-0.26293 -1.11552,0 -0.13146,0.13146 0.13147,0.42629 0,0.55775 -0.13146,0.13147 -0.42629,-0.13146 -0.55775,0 -0.13147,0.13147 0.13146,0.42629 0,0.55776 -0.13147,0.13146 -0.37184,0 -0.55776,0 -0.18592,0 -0.42629,-0.13147 -0.55775,0 -0.13147,0.13146 0,0.37184 0,0.55775 -0.18592,0 -0.4263,-0.13146 -0.55776,0 -0.13146,0.13147 0.13146,0.4263 0,0.55776 -0.26293,0.26293 -0.85258,-0.26293 -1.11551,0 -0.13147,0.13146 0.13146,0.42629 0,0.55776 -0.26293,0.26292 -0.85258,-0.26293 -1.11551,0 -0.13147,0.13146 0.13146,0.42629 0,0.55775 -0.13147,0.13147 -0.37184,0 -0.55776,0 -0.18592,0 -0.42629,-0.13146 -0.55775,0 -0.13147,0.13147 0.13146,0.42629 0,0.55776 -0.13147,0.13146 -0.39147,-0.0831 -0.55776,0 -0.23517,0.11758 -0.32259,0.44017 -0.55776,0.55775 -0.16629,0.0832 -0.39146,-0.0831 -0.55775,0 -0.23517,0.11759 -0.32259,0.44017 -0.55776,0.55776 -0.16629,0.0831 -0.42629,-0.13147 -0.55775,0 -0.13147,0.13146 0.13146,0.42629 0,0.55775 -0.26293,0.26293 -0.85259,-0.26292 -1.11551,0 -0.13147,0.13147 0.13146,0.4263 0,0.55776 -0.18592,0 -0.37184,0 -0.55776,0 -0.18592,0 -0.42629,-0.13146 -0.55776,0 -0.13146,0.13146 0.13147,0.42629 0,0.55776 -0.26292,0.26293 -0.85258,-0.26293 -1.11551,0 -0.13146,0.13146 0.13147,0.42629 0,0.55775 -0.26293,0.26293 -0.85258,-0.26293 -1.11551,0 -0.13146,0.13147 0.13146,0.42629 0,0.55776 -0.26293,0.26293 -0.85258,-0.26293 -1.11551,0 -0.13147,0.13146 0.13146,0.42629 0,0.55775 -0.26293,0.26293 -0.78293,-0.16629 -1.11551,0 -0.23517,0.11759 -0.32259,0.44017 -0.55776,0.55776 -0.33258,0.16629 -0.85258,-0.26293 -1.11551,0 -0.13146,0.13146 0.13146,0.42629 0,0.55776 -0.26293,0.26292 -0.85258,-0.26293 -1.11551,0 -0.13147,0.13146 0.13146,0.42629 0,0.55775 -0.26293,0.26293 -0.85258,-0.26293 -1.11551,0 -0.13147,0.13147 0.13146,0.42629 0,0.55776 -0.13147,0.13146 -0.37184,0 -0.55776,0 -0.18592,0 -0.42629,-0.13147 -0.55775,0 -0.13147,0.13146 0.13146,0.42629 0,0.55775 -0.26293,0.26293 -0.85259,-0.26293 -1.11552,0 -0.13146,0.13147 0.13147,0.42629 0,0.55776 -0.18591,0 -0.37183,0 -0.55775,0 -0.18592,0 -0.42629,-0.13147 -0.55776,0 -0.13146,0.13146 0.13147,0.42629 0,0.55775 -0.26293,0.26293 -0.85258,-0.26292 -1.11551,0 -0.13146,0.13147 0.13147,0.4263 0,0.55776 -0.26293,0.26293 -0.78293,-0.16629 -1.11551,0 -0.23517,0.11759 -0.32259,0.44017 -0.55776,0.55776 -0.33258,0.16629 -0.85258,-0.26293 -1.11551,0 -0.13146,0.13146 0.13147,0.42629 0,0.55775 -0.26293,0.26293 -0.85258,-0.26293 -1.11551,0 -0.13146,0.13147 0.13146,0.42629 0,0.55776 -0.26293,0.26293 -0.85258,-0.26293 -1.11551,0 -0.13147,0.13146 0.13146,0.42629 0,0.55775 -0.13147,0.13147 -0.37184,0 -0.55776,0 -0.18592,0 -0.37183,0 -0.55775,0 -1.48735,0 0.18592,-0.18592 -0.55776,0.55776 -0.27888,0.27888 -1.39439,-0.27888 -1.67327,0 -0.13146,0.13146 0.13147,0.42629 0,0.55775 -0.27887,0.27888 -1.39439,-0.27887 -1.67326,0 -0.13147,0.13147 0.13146,0.4263 0,0.55776 -0.27888,0.27888 -1.39439,-0.27888 -1.67327,0 -0.13146,0.13146 0.13146,0.42629 0,0.55776 -0.11403,0.11402 -1.45212,-0.11058 -1.67327,0 -0.23517,0.11758 -0.32258,0.44017 -0.55775,0.55775 -0.33258,0.16629 -0.78293,-0.16629 -1.11552,0 -0.23517,0.11759 -0.32258,0.44017 -0.55775,0.55776 -0.33258,0.16629 -0.85258,-0.26293 -1.11551,0 -0.13147,0.13146 0.13146,0.42629 0,0.55775 -0.27888,0.27888 -1.39439,-0.27887 -1.67327,0 -0.13146,0.13147 0.13146,0.42629 0,0.55776 -0.13421,0.13421 -2.09681,-0.13421 -2.23102,0 -0.13147,0.13146 0.13146,0.42629 0,0.55776 -0.27888,0.27887 -1.39439,-0.27888 -1.67327,0 -0.13146,0.13146 0.13146,0.42629 0,0.55775 -0.17271,0.17271 -2.61607,-0.17271 -2.78878,0 -0.13146,0.13147 0.13147,0.42629 0,0.55776 -0.17271,0.1727 -2.61607,-0.17271 -2.78878,0 -0.13146,0.13146 0.13147,0.42629 0,0.55775 -0.0253,0.0253 -2.5258,0 -2.78878,0 -0.18592,0 -0.42629,-0.13146 -0.55775,0 -0.13147,0.13147 0.13146,0.42629 0,0.55776 -0.0253,0.0253 -2.5258,0 -2.78878,0 -0.18592,0 -0.42629,-0.13147 -0.55776,0 -0.13146,0.13146 0.13147,0.42629 0,0.55775 -0.0224,0.0225 -2.02619,0 -2.23102,0 -0.20483,0 -2.20858,-0.0224 -2.23102,0 -0.13147,0.13147 0.13146,0.4263 0,0.55776 -0.13147,0.13146 -0.37184,0 -0.55776,0 -1.30143,0 -2.60286,0 -3.90429,0 -0.18592,0 -0.37184,0 -0.55776,0 -0.18591,0 -0.42629,-0.13146 -0.55775,0 -0.13147,0.13146 0.13146,0.42629 0,0.55776 -0.0179,0.0179 -1.538,0 -1.67327,0 -2.78878,0 -5.57756,0 -8.36634,0 -0.20482,0 -2.20857,-0.0225 -2.23102,0 -0.13146,0.13146 0.13147,0.42629 0,0.55775 -0.13146,0.13147 -0.37184,0 -0.55775,0 -0.18592,0 -0.37184,0 -0.55776,0 -0.92959,0 -1.85919,0 -2.78878,0 -0.18592,0 -0.37184,0 -0.55775,0 -0.18592,0 -0.39147,-0.0831 -0.55776,0 -0.23517,0.11759 -0.32259,0.44017 -0.55776,0.55776 -0.16974,0.0849 -1.42207,0 -1.67326,0 -1.48735,0 -2.9747,0 -4.46205,0 -2.41694,0 -4.83388,0 -7.25082,0 -0.39534,0 -3.20233,0.0721 -3.34654,0 -0.23517,-0.11759 -0.32258,-0.44017 -0.55776,-0.55776 -0.1442,-0.0721 -2.95119,0 -3.34653,0 -0.18592,0 -0.37184,0 -0.55776,0 -0.18591,0 -0.42629,0.13147 -0.55775,0 -0.13147,-0.13146 0.13146,-0.42629 0,-0.55775 -0.0179,-0.0179 -1.538,0 -1.67327,0 -0.26298,0 -2.7635,0.0253 -2.78878,0 -0.13146,-0.13147 0.13147,-0.4263 0,-0.55776 -0.13146,-0.13146 -0.37183,0 -0.55775,0 -0.26298,0 -2.7635,0.0253 -2.78878,0 -0.13147,-0.13146 0.13146,-0.42629 0,-0.55776 -0.0253,-0.0253 -2.5258,0 -2.78878,0 -0.18592,0 -0.42629,0.13147 -0.55776,0 -0.13146,-0.13146 0.13147,-0.42629 0,-0.55775 -0.13146,-0.13147 -0.37183,0 -0.55775,0 -1.11551,0 -2.23103,0 -3.34654,0 -0.18592,0 -0.37183,0 -0.55775,0 -0.18592,0 -0.42629,0.13146 -0.55776,0 -0.13146,-0.13147 0.13147,-0.42629 0,-0.55776 -0.17271,-0.17271 -2.61607,0.17271 -2.788778,0 -0.131464,-0.13146 0.131465,-0.42629 0,-0.55775 -0.152614,-0.15262 -1.928447,0.15128 -2.231023,0 -0.23517,-0.11759 -0.322585,-0.44017 -0.557756,-0.55776 -0.446204,-0.2231 -1.227062,0.2231 -1.673267,0 -0.23517,-0.11758 -0.322585,-0.44017 -0.557756,-0.55775 -0.221145,-0.11058 -1.559241,0.11402 -1.673267,0 -0.131464,-0.13147 0.131464,-0.4263 0,-0.55776 -0.278878,-0.27888 -1.394389,0.27888 -1.673267,0 -0.743675,-0.74368 0.929593,-0.55776 -0.557756,-0.55776 -0.185919,0 -0.371837,0 -0.557756,0 -0.185918,0 -0.426291,0.13147 -0.557756,0 -0.131464,-0.13146 0.131465,-0.42629 0,-0.55775 -0.278878,-0.27888 -1.394389,0.27888 -1.673267,0 -0.131464,-0.13147 0.131464,-0.42629 0,-0.55776 -0.262929,-0.26293 -0.852583,0.26293 -1.115512,0 -0.131464,-0.13146 0.131465,-0.42629 0,-0.55775 C 85.328067,-519.299 85.038099,-518.08292 85,-518"
             id="path5710"
             inkscape:connector-curvature="0" />
        </g>
        <g
           transform="matrix(2.0543479,0,0,2.25,-1054.3479,560.00001)"
           id="g5731">
          <path
             style="fill:none;stroke:#000000;stroke-width:3;stroke-linecap:butt;stroke-linejoin:miter;stroke-miterlimit:4;stroke-opacity:1;stroke-dasharray:none;marker-start:none;marker-end:none"
             d="m 375,-558 c -1.36414,-0.29703 -2.69988,-0.79127 -4.09241,-0.89109 -0.26225,-0.0188 -0.30832,0.47461 -0.55775,0.55776 -0.35276,0.11758 -0.76276,-0.11759 -1.11552,0 -0.24943,0.0831 -0.32258,0.44017 -0.55775,0.55775 -0.16629,0.0832 -0.37184,0 -0.55776,0 -0.18592,0.18592 -0.32258,0.44017 -0.55775,0.55776 -0.16629,0.0831 -0.40307,-0.10313 -0.55776,0 -0.43754,0.29169 -0.64517,0.88034 -1.11551,1.11551 -0.33258,0.16629 -0.76276,-0.11759 -1.11551,0 -0.24944,0.0831 -0.32259,0.44017 -0.55776,0.55775 -0.16629,0.0832 -0.39146,-0.0831 -0.55775,0 -0.23517,0.11759 -0.32259,0.44018 -0.55776,0.55776 -0.16629,0.0832 -0.40306,-0.10313 -0.55776,0 -0.43754,0.29169 -0.64517,0.88034 -1.11551,1.11551 -0.66516,0.33258 -1.61225,-0.41251 -2.23102,0 -0.34591,0.23061 -0.21185,0.88491 -0.55776,1.11551 -0.30938,0.20626 -0.75477,-0.0902 -1.11551,0 -0.40331,0.10083 -0.7122,0.45693 -1.11551,0.55776 -0.36073,0.0902 -0.80612,-0.20626 -1.11551,0 -0.34591,0.2306 -0.21185,0.88491 -0.55776,1.11551 -0.30938,0.20626 -0.78293,-0.16629 -1.11551,0 -0.47034,0.23517 -0.64517,0.88034 -1.11551,1.11551 -0.33258,0.16629 -0.74367,0 -1.11551,0 -0.37184,0.37184 -0.67797,0.82382 -1.11551,1.11551 -0.83664,0.55776 -0.55776,-1.11551 -1.67327,0 -0.26293,0.26293 0.26293,0.85259 0,1.11552 -0.27888,0.27887 -1.25495,-0.13944 -1.67327,0 -0.39439,0.13146 -0.71219,0.45692 -1.11551,0.55775 -0.3142,0.0786 -2.10184,-0.0861 -2.23102,0 -0.34591,0.23061 -0.21185,0.88491 -0.55776,1.11551 -0.30939,0.20626 -0.75477,-0.0902 -1.11551,0 -0.40331,0.10083 -0.72112,0.42629 -1.11551,0.55776 -0.48167,0.16056 -1.92241,-0.30861 -2.23102,0 -0.26293,0.26293 0.26292,0.85258 0,1.11551 -0.55776,0.55776 -1.11552,-0.27888 -1.67327,0 -0.23517,0.11759 -0.30832,0.47461 -0.55776,0.55776 -0.35275,0.11758 -0.80612,-0.20626 -1.11551,0 -0.3459,0.2306 -0.26379,0.82154 -0.55775,1.11551 -0.26293,0.26293 -0.78293,-0.16629 -1.11552,0 -0.23517,0.11758 -0.32258,0.44017 -0.55775,0.55775 -0.33258,0.16629 -0.78293,-0.16629 -1.11551,0 -0.23517,0.11759 -0.32259,0.44017 -0.55776,0.55776 -0.33258,0.16629 -0.78293,-0.16629 -1.11551,0 -0.23517,0.11758 -0.30832,0.47461 -0.55776,0.55776 -0.40362,0.13453 -2.04716,-0.18386 -2.23102,0 -0.13146,0.13146 0.13146,0.42629 0,0.55775 -0.18386,0.18386 -1.8274,-0.13454 -2.23102,0 -0.24944,0.0831 -0.32259,0.44017 -0.55776,0.55776 -0.33258,0.16629 -0.78293,-0.16629 -1.11551,0 -0.23517,0.11758 -0.30832,0.47461 -0.55776,0.55775 -0.35275,0.11759 -0.74367,0 -1.11551,0 -0.18592,0 -0.39146,-0.0831 -0.55775,0 -0.23517,0.11759 -0.32259,0.44017 -0.55776,0.55776 -0.51543,0.25771 -1.84082,-0.3902 -2.23102,0 -0.26293,0.26293 0.16629,0.78293 0,1.11551 -0.0461,0.0921 -1.52488,0 -1.67327,0 -1.79539,0 0.95215,-0.13146 -1.11551,0.55776 -0.37944,0.12648 -2.49304,-0.14788 -2.78878,0 -0.23517,0.11758 -0.30832,0.47461 -0.55776,0.55775 -0.46194,0.15398 -2.43407,-0.17735 -2.78877,0 -0.23517,0.11759 -0.32259,0.44017 -0.55776,0.55776 -0.4462,0.2231 -1.22706,-0.22311 -1.67327,0 -0.23517,0.11758 -0.32258,0.44017 -0.55775,0.55775 -0.30258,0.15129 -2.07841,-0.15261 -2.23103,0 -0.13146,0.13147 0.13147,0.42629 0,0.55776 -0.16117,0.16117 -1.97418,-0.17123 -2.23102,0 -0.43754,0.29169 -0.67797,0.82382 -1.11551,1.11551 -0.25684,0.17123 -2.06985,-0.16117 -2.23102,0 -0.13147,0.13146 0.13146,0.42629 0,0.55776 -0.13422,0.13421 -2.09681,-0.13422 -2.23103,0 -0.13146,0.13146 0.16629,0.47461 0,0.55775 -0.49887,0.24944 -1.11551,0 -1.67326,0 -0.18592,0 -0.37184,0 -0.55776,0 -0.18592,0 -0.39147,-0.0831 -0.55776,0 -0.23517,0.11759 -0.32258,0.44017 -0.55775,0.55776 -0.30258,0.15129 -2.07841,-0.15262 -2.23102,0 -0.13147,0.13146 0.13146,0.42629 0,0.55775 -0.0253,0.0253 -2.5258,0 -2.78878,0 -0.18592,0 -0.4263,-0.13146 -0.55776,0 -0.74367,0.74368 0.92959,0.55776 -0.55776,0.55776 -0.18591,0 -0.37183,0 -0.55775,0 -0.18592,0 -0.55776,0.18592 -0.55776,0 0,-0.18592 0.55776,-0.18592 0.55776,0 0,0.26293 -0.42902,0.3285 -0.55776,0.55775 -0.43959,0.78284 -0.75247,1.63037 -1.12871,2.44555"
             id="path3922"
             inkscape:connector-curvature="0" />
          <g
             id="g5696"
             transform="matrix(-0.53449935,-0.84516888,0.84516888,-0.53449935,815.41723,-972.0891)">
            <path
               sodipodi:nodetypes="ccsscccsssscccssc"
               inkscape:connector-curvature="0"
               id="path5698"
               d="m -123.26403,-605.74257 c 0.24944,0.33258 0.2638,0.82154 0.55776,1.11551 0.474,0.474 1.19927,0.64151 1.67327,1.11551 0.474,0.474 0.64151,1.19926 1.11551,1.67327 0.474,0.474 1.27106,0.57924 1.67327,1.11551 0.2231,0.29747 -0.22311,0.81804 0,1.11551 0.4022,0.53627 1.14982,0.69675 1.67326,1.11551 1.02657,0.82125 1.77885,1.94717 2.78878,2.78878 0.51497,0.42914 1.1583,0.68637 1.67327,1.11551 1.60926,1.34105 2.85278,3.12099 4.46205,4.46205 1.02993,0.85828 2.39853,1.28302 3.34653,2.23102 0.474,0.474 0.57924,1.27106 1.11551,1.67327 0.29747,0.2231 0.79667,-0.19131 1.11551,0 0.67638,0.40582 1.06731,1.1683 1.67327,1.67326 0.514969,0.42915 1.158299,0.68638 1.673268,1.11552 0.605962,0.50496 1.067305,1.1683 1.673267,1.67326 0.514969,0.42914 1.158299,0.68637 1.673267,1.11552"
               style="fill:none;stroke:#000000;stroke-width:3;stroke-linecap:butt;stroke-linejoin:miter;stroke-miterlimit:4;stroke-opacity:1;stroke-dasharray:none" />
            <path
               sodipodi:nodetypes="cscssssccsccsccccscssscc"
               inkscape:connector-curvature="0"
               id="path5700"
               d="m -97.049505,-602.9538 c -0.43754,0.2917 -0.645171,0.88035 -1.115512,1.11552 -0.332581,0.16629 -0.78293,-0.1663 -1.115511,0 -0.940682,0.47034 -1.290342,1.76068 -2.231022,2.23102 -0.33258,0.16629 -0.85258,-0.26293 -1.11551,0 -0.26293,0.26293 0.26293,0.85258 0,1.11551 -0.26293,0.26293 -0.78293,-0.16629 -1.11551,0 -0.94069,0.47034 -1.35595,1.64764 -2.23103,2.23102 -0.15469,0.10313 -0.40306,-0.10313 -0.55775,0 -2.2099,-0.11135 -0.52759,1.6431 -1.11551,2.23103 -0.26293,0.26293 -0.75478,-0.0902 -1.11552,0 -0.40331,0.10082 -0.78293,0.30832 -1.11551,0.55775 -0.42068,0.31552 -0.8,0.69483 -1.11551,1.11551 -0.24944,0.33259 -0.21185,0.88491 -0.55776,1.11552 -0.30938,0.20625 -0.78293,-0.1663 -1.11551,0 -0.47034,0.23517 -0.69482,0.79999 -1.11551,1.11551 -0.33258,0.24943 -0.78293,0.30832 -1.11551,0.55775 -0.42069,0.31552 -0.67797,0.82382 -1.11551,1.11551 -0.1547,0.10313 -0.40306,-0.10312 -0.55776,0 -0.43754,0.2917 -0.64517,0.88035 -1.11551,1.11552 -0.33258,0.16629 -0.78293,-0.16629 -1.11551,0 -4.64249,2.32124 1.19252,-0.077 -1.11551,2.23102 -0.26293,0.26293 -0.76276,-0.11759 -1.11551,0 -0.24944,0.0831 -0.30832,0.47461 -0.55776,0.55775"
               style="fill:none;stroke:#000000;stroke-width:3;stroke-linecap:butt;stroke-linejoin:miter;stroke-miterlimit:4;stroke-opacity:1;stroke-dasharray:none" />
          </g>
          <path
             style="fill:none;stroke:#000000;stroke-width:3;stroke-linecap:butt;stroke-linejoin:miter;stroke-miterlimit:4;stroke-opacity:1;stroke-dasharray:none"
             d="m 300,-523 c -0.53355,-0.25083 -1.85149,-0.21892 -1.60066,-0.75248 0.25083,-0.53355 2.12799,1.01614 1.60066,0.75248 -0.8991,-0.44955 -1.78291,-0.93674 -2.71617,-1.31023 -0.34522,-0.13816 -0.78293,0.16629 -1.11551,0 -1.37844,-0.68922 0.19252,-0.55776 -1.11551,-0.55776 -0.18592,0 -0.37184,0 -0.55776,0 -0.18592,0 -0.42629,0.13147 -0.55776,0 -0.13146,-0.13146 0.13147,-0.42629 0,-0.55775 -0.13421,-0.13422 -2.09681,0.13421 -2.23102,0 -0.13146,-0.13147 0.13147,-0.42629 0,-0.55776 -0.13421,-0.13421 -2.09681,0.13421 -2.23102,0 -0.13147,-0.13146 0.13146,-0.42629 0,-0.55775 -0.11403,-0.11403 -1.45212,0.11057 -1.67327,0 -0.23517,-0.11759 -0.32258,-0.44018 -0.55776,-0.55776 -0.22114,-0.11057 -1.55924,0.11403 -1.67326,0 -0.13147,-0.13146 0.13146,-0.42629 0,-0.55776 -0.27888,-0.27887 -1.39439,0.27888 -1.67327,0 -0.13146,-0.13146 0.13146,-0.42629 0,-0.55775 -0.26293,-0.26293 -0.85258,0.26293 -1.11551,0 -0.13147,-0.13147 0.13146,-0.42629 0,-0.55776 -0.13147,-0.13146 -0.55776,0.18592 -0.55776,0 0,-1.16062 0.78218,-0.22442 1.11551,-0.55775 0.13147,-0.13147 0,-0.37184 0,-0.55776 0.18592,0 0.4263,0.13146 0.55776,0 0.13146,-0.13146 -0.13146,-0.42629 0,-0.55776 0.37209,-0.37209 0.74342,0.3721 1.11551,0 0.13147,-0.13146 -0.13146,-0.42629 0,-0.55775 0.13147,-0.13147 0.42629,0.13146 0.55776,0 0.13146,-0.13147 -0.13147,-0.42629 0,-0.55776 0.13146,-0.13146 0.39146,0.0832 0.55775,0 0.23517,-0.11758 0.37184,-0.37183 0.55776,-0.55775 0.18592,-0.18592 0.44017,-0.32259 0.55775,-0.55776 0.0831,-0.16629 -0.13146,-0.42629 0,-0.55775 0.13147,-0.13147 0.4263,0.13146 0.55776,0 0.13146,-0.13147 -0.13146,-0.4263 0,-0.55776 0.13146,-0.13146 0.39147,0.0832 0.55776,0 0.23517,-0.11759 0.37183,-0.37184 0.55775,-0.55776 0.18592,-0.18591 0.44017,-0.32258 0.55776,-0.55775 0.0831,-0.16629 -0.13147,-0.42629 0,-0.55776 0.13146,-0.13146 0.42629,0.13147 0.55775,0 0.13147,-0.13146 -0.13146,-0.42629 0,-0.55775 0.13147,-0.13147 0.42629,0.13146 0.55776,0 0.13146,-0.13147 -0.13147,-0.42629 0,-0.55776 0.13146,-0.13146 0.42629,0.13147 0.55776,0 0.13146,-0.13146 -0.13147,-0.42629 0,-0.55775 0.13146,-0.13147 0.42629,0.13146 0.55775,0 0.13147,-0.13147 -0.13146,-0.4263 0,-0.55776 0.13147,-0.13146 0.42629,0.13146 0.55776,0 0,-1.48735 -0.18592,0.18592 0.55775,-0.55776 0.13147,-0.13146 -0.13146,-0.42629 0,-0.55775 0.13147,-0.13147 0.42629,0.13146 0.55776,0 0.13146,-0.13147 -0.13147,-0.42629 0,-0.55776 0.13146,-0.13146 0.42629,0.13147 0.55775,0 0.13147,-0.13146 -0.13146,-0.42629 0,-0.55775 0.13147,-0.13147 0.4263,0.13146 0.55776,0 0.13146,-0.13147 0,-0.37184 0,-0.55776 0.18592,0 0.42629,0.13147 0.55776,0 0.13146,-0.13146 -0.18592,-0.55775 0,-0.55775 0.18591,0 0.003,0.37186 0,0.55775 -0.0144,0.82845 -0.0352,1.65677 -0.0528,2.48515"
             id="path5712"
             inkscape:connector-curvature="0" />
        </g>
        <path
           transform="matrix(2.0543479,0,0,2.25,-1054.3479,560.00001)"
           inkscape:connector-curvature="0"
           id="path5714"
           d="m 90,-508 c -2.608734,-1.64369 -2.432343,-1.05946 -2.432343,-2.92409 0,-0.18592 0.131464,-0.42629 0,-0.55776 -0.131464,-0.13146 -0.426292,0.13147 -0.557756,0 -0.131464,-0.13146 0,-0.37184 0,-0.55775 0,-0.18592 0,-0.37184 0,-0.55776 0,-0.13527 0.01794,-1.65533 0,-1.67327 -0.131464,-0.13146 -0.426291,0.13147 -0.557756,0 -0.134213,-0.13421 0.134214,-2.09681 0,-2.23102 -0.131464,-0.13147 -0.426291,0.13146 -0.557756,0 -0.134213,-0.13421 0.134214,-2.09681 0,-2.23102 -0.131464,-0.13147 -0.426291,0.13146 -0.557755,0 -0.134214,-0.13422 0.134213,-2.09681 0,-2.23103 -0.131465,-0.13146 -0.426292,0.13147 -0.557756,0 -0.278878,-0.27887 0.278878,-1.39439 0,-1.67326 -0.131464,-0.13147 -0.557756,0.18591 -0.557756,0 0,-0.18592 0.426292,0.13146 0.557756,0 0.131464,-0.13147 -0.131464,-0.4263 0,-0.55776 0.114026,-0.11403 1.452122,0.11057 1.673267,0 0.235171,-0.11759 0.322586,-0.44017 0.557756,-0.55776 0.332581,-0.16629 0.78293,0.16629 1.115512,0 0.23517,-0.11758 0.322585,-0.44017 0.557755,-0.55775 0.332582,-0.16629 0.782931,0.16629 1.115512,0 0.23517,-0.11759 0.322585,-0.44017 0.557756,-0.55776 0.332581,-0.16629 0.852583,0.26293 1.115511,0 0.131465,-0.13146 -0.131464,-0.42629 0,-0.55775 0.262929,-0.26293 0.852583,0.26293 1.115512,0 0.131464,-0.13147 -0.131465,-0.42629 0,-0.55776 0.131464,-0.13146 0.391465,0.0832 0.557756,0 0.23517,-0.11758 0.322585,-0.44017 0.557755,-0.55775 0.166291,-0.0832 0.426292,0.13146 0.557756,0 0.131464,-0.13147 -0.131464,-0.4263 0,-0.55776 0.262929,-0.26293 0.78293,0.16629 1.115512,0 1.37844,-0.68922 -0.192525,-0.55776 1.115511,-0.55776 0.185919,0 0.73894,0.0417 0.557756,0 C 96.374461,-527.81209 95.683168,-527.88559 95,-528"
           style="fill:none;stroke:#000000;stroke-width:3;stroke-linecap:butt;stroke-linejoin:miter;stroke-miterlimit:4;stroke-opacity:1;stroke-dasharray:none" />
        <path
           transform="matrix(2.0543479,0,0,2.25,-1054.3479,560.00001)"
           inkscape:connector-curvature="0"
           id="path5716"
           d="m 225,-643 c -0.26073,0.33443 -0.44774,1.26403 -0.78218,1.0033 -0.33443,-0.26073 1.13502,-1.23852 0.78218,-1.0033 -0.89951,0.59967 -1.64719,1.40086 -2.45545,2.11881 -0.19657,0.17461 -0.32258,0.44017 -0.55775,0.55776 -0.16629,0.0831 -0.39147,-0.0831 -0.55776,0 -0.23517,0.11758 -0.32258,0.44017 -0.55775,0.55775 -0.16629,0.0831 -0.42629,-0.13146 -0.55776,0 -0.13146,0.13147 0.13147,0.42629 0,0.55776 -0.26293,0.26293 -0.85258,-0.26293 -1.11551,0 -0.13146,0.13146 0.13146,0.42629 0,0.55775 -0.13146,0.13147 -0.39147,-0.0831 -0.55776,0 -0.23517,0.11759 -0.32258,0.44017 -0.55775,0.55776 -0.16629,0.0831 -0.42629,-0.13146 -0.55776,0 -0.13146,0.13146 0.13147,0.42629 0,0.55776 -0.26293,0.26292 -0.85258,-0.26293 -1.11551,0 -0.13146,0.13146 0,0.37183 0,0.55775 -0.18592,0 -0.39146,-0.0831 -0.55775,0 -0.23518,0.11759 -0.32259,0.44017 -0.55776,0.55776 -0.16629,0.0831 -0.42629,-0.13147 -0.55776,0 -0.13146,0.13146 0.13147,0.42629 0,0.55775 -0.13146,0.13147 -0.39146,-0.0831 -0.55775,0 -0.23517,0.11759 -0.32259,0.44017 -0.55776,0.55776 -0.16629,0.0831 -0.42629,-0.13147 -0.55775,0 -0.13147,0.13146 0.13146,0.42629 0,0.55775 -0.13147,0.13147 -0.55776,0.18592 -0.55776,0 0,-0.18591 0.39147,-0.0831 0.55776,0 0.23517,0.11759 0.32258,0.44018 0.55775,0.55776 1.48735,0 -0.18592,-0.18592 0.55776,0.55776 0.26293,0.26292 0.85258,-0.26293 1.11551,0 0.13146,0.13146 -0.13146,0.42629 0,0.55775 0.13146,0.13147 0.39146,-0.0831 0.55776,0 0.23517,0.11759 0.32258,0.44017 0.55775,0.55776 0.16629,0.0831 0.39147,-0.0831 0.55776,0 0.23517,0.11758 0.32258,0.44017 0.55775,0.55775 0.16629,0.0831 0.42629,-0.13146 0.55776,0 0.13146,0.13147 -0.13147,0.4263 0,0.55776 0.13146,0.13146 0.39146,-0.0831 0.55775,0 0.23517,0.11758 0.32259,0.44017 0.55776,0.55776 0.16629,0.0831 0.42629,-0.13147 0.55776,0 0.13146,0.13146 -0.13147,0.42629 0,0.55775 0.26292,0.26293 0.85258,-0.26293 1.11551,0 0.13146,0.13147 -0.13147,0.42629 0,0.55776 0.26293,0.26293 0.85258,-0.26293 1.11551,0 0.13146,0.13146 -0.13147,0.42629 0,0.55775 0.13146,0.13147 0.39146,-0.0831 0.55775,0 0.23518,0.11759 0.32259,0.44017 0.55776,0.55776 0.16629,0.0831 0.39147,-0.0832 0.55776,0 1.84984,1.84984 -0.52586,-0.26293 1.11551,0.55775 0.23517,0.11759 0.32258,0.44017 0.55775,0.55776 0.33258,0.16629 0.85259,-0.26293 1.11552,0 0.13146,0.13146 -0.13147,0.42629 0,0.55776 0.13146,0.13146 0.39146,-0.0832 0.55775,0 0.23517,0.11758 0.32259,0.44017 0.55776,0.55775 0.16629,0.0832 0.39146,-0.0831 0.55775,0 0.23517,0.11759 0.3587,0.72953 0.55776,0.55776 0.64278,-0.55467 0.88009,-1.45215 1.32013,-2.17822"
           style="fill:none;stroke:#000000;stroke-width:3;stroke-linecap:butt;stroke-linejoin:miter;stroke-miterlimit:4;stroke-opacity:1;stroke-dasharray:none" />
        <g
           transform="matrix(2.0543479,0,0,2.25,-1054.3479,560.00001)"
           id="g5724">
          <path
             style="fill:none;stroke:#000000;stroke-width:3;stroke-linecap:butt;stroke-linejoin:miter;stroke-miterlimit:4;stroke-opacity:1;stroke-dasharray:none;marker-start:none;marker-end:none"
             d="m 335,-478 c -0.11551,0.36634 0.0198,1.21452 -0.34653,1.09901 -0.36634,-0.11551 0.70317,-0.95635 0.34653,-1.09901 -0.0437,-0.0175 -2.67324,-0.0165 -3.69307,-0.0165 -0.18592,0 -0.37184,0 -0.55775,0 -0.18592,0 -0.4263,0.13146 -0.55776,0 -0.13146,-0.13147 0.13146,-0.42629 0,-0.55776 -0.13421,-0.13421 -2.09681,0.13422 -2.23102,0 -0.13147,-0.13146 0.13146,-0.42629 0,-0.55775 -0.13147,-0.13147 -0.37184,0 -0.55776,0 -0.18592,0 -0.37184,0 -0.55776,0 -0.37183,0 -0.74367,0 -1.11551,0 -0.37183,0 -0.80612,0.20625 -1.11551,0 -0.3459,-0.23061 -0.26379,-0.82155 -0.55775,-1.11552 -0.13147,-0.13146 -0.37184,0 -0.55776,0 -0.74367,0 -1.48735,0 -2.23102,0 -0.37184,0 -0.75478,0.0902 -1.11551,0 -0.40332,-0.10082 -0.7122,-0.45692 -1.11552,-0.55775 -0.5411,-0.13528 -1.11551,0 -1.67326,0 -1.30143,0 -2.60286,0 -3.90429,0 -0.18592,0 -0.37184,0 -0.55776,0 -0.18592,0 -0.42629,0.13146 -0.55776,0 -0.13146,-0.13147 0.1663,-0.47461 0,-0.55776 -0.16089,-0.0804 -2.99006,0 -3.34653,0 -2.0451,0 -4.09021,0 -6.13531,0 -1.67327,0 -3.34654,0 -5.01981,0 -0.18591,0 -0.37183,0 -0.55775,0 -0.18592,0 -0.42629,0.13147 -0.55776,0 -0.13146,-0.13146 0.13147,-0.42629 0,-0.55775 -0.13146,-0.13147 -0.37183,0 -0.55775,0 -1.11551,0 -2.23103,0 -3.34654,0 -0.18592,0 -0.42629,0.13146 -0.55775,0 -0.13147,-0.13147 0.13146,-0.42629 0,-0.55776 -0.13147,-0.13146 -0.37184,0 -0.55776,0 -0.92959,0 -1.85919,0 -2.78878,0 -0.18592,0 -0.42629,0.13147 -0.55775,0 -0.13147,-0.13146 0.13146,-0.42629 0,-0.55775 -0.13147,-0.13147 -0.37184,0 -0.55776,0 -0.38794,0 -2.58708,0.10085 -2.78878,0 -0.23517,-0.11759 -0.32258,-0.44017 -0.55775,-0.55776 -0.14421,-0.0721 -2.9512,0 -3.34654,0 -1.30143,0 -2.60286,0 -3.90429,0 -0.18592,0 -0.42629,0.13146 -0.55776,0 -0.13146,-0.13146 0.13147,-0.42629 0,-0.55776 -0.13146,-0.13146 -0.37183,0 -0.55775,0 -0.38794,0 -2.58708,0.10086 -2.78878,0 -0.23517,-0.11758 -0.32259,-0.44017 -0.55776,-0.55775 -0.16591,-0.083 -3.1119,0 -3.34653,0 -0.18592,0 -0.42629,0.13146 -0.55776,0 -0.13146,-0.13147 0.13147,-0.42629 0,-0.55776 -0.1727,-0.1727 -2.61607,0.17271 -2.78877,0 -0.13147,-0.13146 0.13146,-0.42629 0,-0.55775 -0.15262,-0.15262 -1.92845,0.15128 -2.23103,0 -0.23517,-0.11759 -0.32258,-0.44017 -0.55775,-0.55776 -0.30258,-0.15129 -2.07841,0.15262 -2.23103,0 -0.13146,-0.13146 0.13147,-0.42629 0,-0.55775 -0.1727,-0.17271 -2.61607,0.1727 -2.78878,0 -0.13146,-0.13147 0.13147,-0.4263 0,-0.55776 -0.13146,-0.13146 -0.37183,0 -0.55775,0 -0.26298,0 -2.7635,0.0253 -2.78878,0 -0.13146,-0.13146 0.13146,-0.42629 0,-0.55776 -0.0253,-0.0253 -2.5258,0 -2.78878,0 -0.18592,0 -0.37184,0 -0.55776,0 -0.18591,0 -0.42629,0.13147 -0.55775,0 -0.13147,-0.13146 0.13146,-0.42629 0,-0.55775 -0.0179,-0.0179 -1.538,0 -1.67327,0 -1.48735,0 -2.9747,0 -4.46204,0 -0.18592,0 -0.37184,0 -0.55776,0 -0.18592,0 -0.42629,0.13146 -0.55776,0 -0.13146,-0.13147 0.13147,-0.42629 0,-0.55776 -0.13146,-0.13146 -0.37183,0 -0.55775,0 -0.18592,0 -0.37184,0 -0.55776,0 -1.48735,0 -2.97469,0 -4.46204,0 -0.18592,0 -0.4263,0.13147 -0.55776,0 -0.13146,-0.13146 0.13146,-0.42629 0,-0.55775 -0.13146,-0.13147 -0.37184,0 -0.55776,0 -0.92959,0 -1.85918,0 -2.78877,0 -0.18592,0 -0.4263,0.13146 -0.55776,0 -0.13146,-0.13147 0.13146,-0.42629 0,-0.55776 -0.0179,-0.0179 -1.538,0 -1.67327,0 -0.20483,0 -2.20858,0.0224 -2.23102,0 -0.13146,-0.13146 0.13146,-0.42629 0,-0.55776 -0.13146,-0.13146 -0.37184,0 -0.55776,0 -0.26298,0 -2.7635,0.0253 -2.78877,0 -0.13147,-0.13146 0.13146,-0.42629 0,-0.55775 -0.13147,-0.13147 -0.37184,0 -0.55776,0 -0.18592,0 -0.37184,0 -0.55776,0 -1.48735,0 -2.97469,0 -4.46204,0 -0.18592,0 -0.37184,0 -0.55776,0 -0.18592,0 -0.42629,0.13146 -0.55775,0 -0.13147,-0.13147 0.13146,-0.42629 0,-0.55776 -0.0224,-0.0224 -2.0262,0 -2.23103,0 -2.23102,0 -4.46204,0 -6.69307,0 -0.52549,0 -3.03348,0.10696 -3.34653,0 -0.84972,-0.2903 -1.65677,-0.69307 -2.48515,-1.0396"
             id="path3928"
             inkscape:connector-curvature="0" />
          <g
             transform="matrix(0.1771296,-0.87728583,1.130212,0.04788004,1025.8312,-550.45429)"
             id="g5702">
            <path
               style="fill:none;stroke:#000000;stroke-width:3;stroke-linecap:butt;stroke-linejoin:miter;stroke-miterlimit:4;stroke-opacity:1;stroke-dasharray:none"
               d="m -123.26403,-605.74257 c 0.24944,0.33258 0.2638,0.82154 0.55776,1.11551 0.474,0.474 1.19927,0.64151 1.67327,1.11551 0.474,0.474 0.64151,1.19926 1.11551,1.67327 0.474,0.474 1.27106,0.57924 1.67327,1.11551 0.2231,0.29747 -0.22311,0.81804 0,1.11551 0.4022,0.53627 1.14982,0.69675 1.67326,1.11551 1.02657,0.82125 1.77885,1.94717 2.78878,2.78878 0.51497,0.42914 1.1583,0.68637 1.67327,1.11551 1.60926,1.34105 2.85278,3.12099 4.46205,4.46205 1.02993,0.85828 2.39853,1.28302 3.34653,2.23102 0.474,0.474 0.57924,1.27106 1.11551,1.67327 0.29747,0.2231 0.79667,-0.19131 1.11551,0 0.67638,0.40582 1.06731,1.1683 1.67327,1.67326 0.514969,0.42915 1.158299,0.68638 1.673268,1.11552 0.605962,0.50496 1.067305,1.1683 1.673267,1.67326 0.514969,0.42914 1.158299,0.68637 1.673267,1.11552"
               id="path5704"
               inkscape:connector-curvature="0"
               sodipodi:nodetypes="ccsscccsssscccssc" />
            <path
               style="fill:none;stroke:#000000;stroke-width:3;stroke-linecap:butt;stroke-linejoin:miter;stroke-miterlimit:4;stroke-opacity:1;stroke-dasharray:none"
               d="m -97.049505,-602.9538 c -0.43754,0.2917 -0.645171,0.88035 -1.115512,1.11552 -0.332581,0.16629 -0.78293,-0.1663 -1.115511,0 -0.940682,0.47034 -1.290342,1.76068 -2.231022,2.23102 -0.33258,0.16629 -0.85258,-0.26293 -1.11551,0 -0.26293,0.26293 0.26293,0.85258 0,1.11551 -0.26293,0.26293 -0.78293,-0.16629 -1.11551,0 -0.94069,0.47034 -1.35595,1.64764 -2.23103,2.23102 -0.15469,0.10313 -0.40306,-0.10313 -0.55775,0 -2.2099,-0.11135 -0.52759,1.6431 -1.11551,2.23103 -0.26293,0.26293 -0.75478,-0.0902 -1.11552,0 -0.40331,0.10082 -0.78293,0.30832 -1.11551,0.55775 -0.42068,0.31552 -0.8,0.69483 -1.11551,1.11551 -0.24944,0.33259 -0.21185,0.88491 -0.55776,1.11552 -0.30938,0.20625 -0.78293,-0.1663 -1.11551,0 -0.47034,0.23517 -0.69482,0.79999 -1.11551,1.11551 -0.33258,0.24943 -0.78293,0.30832 -1.11551,0.55775 -0.42069,0.31552 -0.67797,0.82382 -1.11551,1.11551 -0.1547,0.10313 -0.40306,-0.10312 -0.55776,0 -0.43754,0.2917 -0.64517,0.88035 -1.11551,1.11552 -0.33258,0.16629 -0.78293,-0.16629 -1.11551,0 -4.64249,2.32124 1.19252,-0.077 -1.11551,2.23102 -0.26293,0.26293 -0.76276,-0.11759 -1.11551,0 -0.24944,0.0831 -0.30832,0.47461 -0.55776,0.55775"
               id="path5706"
               inkscape:connector-curvature="0"
               sodipodi:nodetypes="cscssssccsccsccccscssscc" />
          </g>
          <path
             style="fill:none;stroke:#000000;stroke-width:3;stroke-linecap:butt;stroke-linejoin:miter;stroke-miterlimit:4;stroke-opacity:1;stroke-dasharray:none"
             d="m 220,-498 c -0.82508,-0.40374 -1.62219,-0.87055 -2.47525,-1.21122 -0.72721,-0.29041 -0.55848,0.27924 -1.11551,0.55775 -0.33258,0.16629 -0.78293,-0.16629 -1.11551,0 -0.23517,0.11759 -0.32259,0.44017 -0.55776,0.55776 -0.22114,0.11057 -1.55924,-0.11403 -1.67326,0 -0.13147,0.13146 0.16629,0.47461 0,0.55776 -0.66517,0.33258 -1.56586,-0.33259 -2.23103,0 -0.47034,0.23517 -0.67797,0.82381 -1.11551,1.11551 -0.30939,0.20626 -0.78293,-0.16629 -1.11551,0 -0.23517,0.11758 -0.32259,0.44017 -0.55776,0.55775 -0.16629,0.0831 -0.37183,0 -0.55775,0 -0.18592,0 -0.39147,-0.0831 -0.55776,0 -0.23517,0.11759 -0.32258,0.44017 -0.55775,0.55776 -0.16629,0.0831 -0.37184,0 -0.55776,0 -0.18592,0.18592 -0.32258,0.44017 -0.55775,0.55775 -0.33259,0.1663 -0.85259,-0.26292 -1.11552,0 -0.13146,0.13147 0.13147,0.4263 0,0.55776 -0.27887,0.27888 -1.39439,-0.27888 -1.67326,0 -0.13147,0.13146 0.13146,0.42629 0,0.55776 -0.26293,0.26292 -0.78293,-0.16629 -1.11551,0 -0.23518,0.11758 -0.32259,0.44017 -0.55776,0.55775 -0.16629,0.0832 -0.39147,-0.0831 -0.55776,0 -0.23517,0.11759 -0.32258,0.44017 -0.55775,0.55776 -0.33258,0.16629 -0.85259,-0.26293 -1.11551,0 -0.13147,0.13146 0.13146,0.42629 0,0.55775 -0.13147,0.13147 -0.37184,0 -0.55776,0 -0.18592,0 -0.42629,-0.13146 -0.55776,0 -0.13146,0.13147 0.13147,0.42629 0,0.55776 -0.26292,0.26293 -1.11551,-0.37184 -1.11551,0 0,1.11443 1.34095,0.22543 1.67327,0.55775 0.13146,0.13147 -0.13146,0.4263 0,0.55776 0.13146,0.13147 0.37184,0 0.55776,0 0.18591,0 0.42629,-0.13146 0.55775,0 0.13147,0.13147 -0.13146,0.42629 0,0.55776 0.13147,0.13146 0.39147,-0.0831 0.55776,0 0.23517,0.11758 0.32258,0.44017 0.55775,0.55775 0.16629,0.0832 0.39147,-0.0831 0.55776,0 0.23517,0.11759 0.32258,0.44017 0.55776,0.55776 1.48734,0 -0.18592,-0.18592 0.55775,0.55775 0.26293,0.26293 0.85258,-0.26292 1.11551,0 0.13147,0.13147 -0.13146,0.4263 0,0.55776 0.13147,0.13146 0.39147,-0.0831 0.55776,0 0.23517,0.11758 0.32258,0.44017 0.55775,0.55776 0.16629,0.0831 0.39147,-0.0831 0.55776,0 0.23517,0.11758 0.32259,0.44017 0.55776,0.55775 0.16629,0.0831 0.39146,-0.0831 0.55775,0 0.23517,0.11759 0.32259,0.44017 0.55776,0.55776 0.33258,0.16629 0.85258,-0.26293 1.11551,0 0.13146,0.13146 -0.13147,0.42629 0,0.55775 0.13146,0.13147 0.39146,-0.0831 0.55775,0 0.23517,0.11759 0.30832,0.47461 0.55776,0.55776 0.70551,0.23517 1.56586,-0.33258 2.23102,0 0.16629,0.0831 -0.13146,0.42629 0,0.55775 0.26293,0.26293 0.85259,-0.26292 1.11551,0 0.13147,0.13147 -0.13146,0.4263 0,0.55776 0.13147,0.13146 0.37184,0 0.55776,0 0.37184,0 0.85258,-0.26293 1.11551,0 0.26293,0.26293 -0.16629,0.78293 0,1.11551 0.0831,0.16629 0.37184,0 0.55776,0 1.30803,0 -0.26293,-0.13146 1.11551,0.55776 0.16629,0.0831 0.42629,-0.13147 0.55776,0 0.13146,0.13146 -0.13147,0.42629 0,0.55775 0.26292,0.26293 0.78293,-0.16629 1.11551,0 0.23517,0.11759 0.32258,0.44017 0.55775,0.55776 0.16629,0.0831 0.39147,-0.0832 0.55776,0 0.23517,0.11758 0.32258,0.44017 0.55775,0.55775 0.33259,0.1663 0.85259,-0.26292 1.11552,0 0.13146,0.13147 -0.13147,0.4263 0,0.55776 0.26292,0.26293 0.85258,-0.26293 1.11551,0 0.13146,0.13146 -0.13147,0.42629 0,0.55776 0.26293,0.26292 0.85258,-0.26293 1.11551,0 0.13146,0.13146 -0.13147,0.42629 0,0.55775 0.26293,0.26293 0.85258,-0.26293 1.11551,0 0.13146,0.13147 -0.13146,0.42629 0,0.55776 0.13146,0.13146 0.37184,-0.002 0.55776,0 0.44666,0.004 0.89329,0.011 1.33993,0.0165"
             id="path5718"
             inkscape:connector-curvature="0" />
        </g>
        <path
           transform="matrix(2.0543479,0,0,2.25,-1054.3479,560.00001)"
           inkscape:connector-curvature="0"
           id="path5720"
           d="m 305,-618 c 0.40264,-0.19032 1.0176,-0.9736 1.20792,-0.57096 0.19032,0.40264 -1.60626,0.77013 -1.20792,0.57096 0.77013,-0.38506 1.60236,-0.65815 2.32343,-1.12871 0.44038,-0.28739 0.74368,-0.74368 1.11551,-1.11552 0.18592,-0.18591 0.32259,-0.44017 0.55776,-0.55775 0.16629,-0.0832 0.42629,0.13146 0.55776,0 0.13146,-0.13147 -0.13147,-0.42629 0,-0.55776 0.13146,-0.13146 0.42629,0.13147 0.55775,0 0.13147,-0.13146 -0.13146,-0.42629 0,-0.55775 0.13147,-0.13147 0.39147,0.0831 0.55776,0 0.23517,-0.11759 0.32258,-0.44017 0.55775,-0.55776 0.16629,-0.0831 0.47461,0.16629 0.55776,0 0.16629,-0.33258 -0.26293,-0.85258 0,-1.11551 0.26293,-0.26293 0.76275,0.11759 1.11551,0 0.24944,-0.0831 0.30832,-0.47461 0.55776,-0.55776 0.35275,-0.11758 0.78293,0.1663 1.11551,0 0.47034,-0.23517 0.67797,-0.82381 1.11551,-1.11551 0.15469,-0.10313 0.47461,0.16629 0.55775,0 0.1663,-0.33258 -0.16629,-0.78293 0,-1.11551 0.0831,-0.16629 0.39147,0.0832 0.55776,0 1.70091,-0.85045 -1.0201,-0.44217 1.67327,-1.11551 0.36073,-0.0902 0.78293,0.16629 1.11551,0 0.16629,-0.0832 -0.13146,-0.42629 0,-0.55776 0.13146,-0.13146 0.37184,0 0.55776,0 0,-0.37183 -0.1663,-0.78293 0,-1.11551 0.16629,-0.33258 0.85258,0.26293 1.11551,0 0.13146,-0.13146 -0.13147,-0.42629 0,-0.55775 0.13146,-0.13147 0.42629,0.13146 0.55775,0 0.13147,-0.13147 -0.13146,-0.42629 0,-0.55776 0.26293,-0.26293 0.85259,0.26293 1.11551,0 0.13147,-0.13146 0,-0.37184 0,-0.55775 0.18592,0 0.4263,0.13146 0.55776,0 0.13146,-0.13147 -0.13146,-0.4263 0,-0.55776 0.26293,-0.26293 0.85258,0.26293 1.11551,0 0.13147,-0.13146 -0.18592,-0.55776 0,-0.55776 0.18592,0 0,0.37184 0,0.55776 0,0.37184 0,0.74367 0,1.11551 0,0.18592 0,0.37184 0,0.55776 0,0.18592 0.13147,0.42629 0,0.55775 -0.13146,0.13147 -0.42629,-0.13146 -0.55775,0 -0.19579,0.19579 0.19263,2.40352 0,2.78878 -0.11759,0.23517 -0.44017,0.32259 -0.55776,0.55776 -0.17288,0.34575 0.17116,2.44646 0,2.78878 -0.0831,0.16629 -0.42629,-0.13147 -0.55776,0 -0.0224,0.0224 0,2.02619 0,2.23102 0,0.18592 0.16629,0.47461 0,0.55775 -0.33258,0.1663 -0.78293,-0.16629 -1.11551,0 -0.16629,0.0832 0,0.37184 0,0.55776 0,0.55776 0,1.11551 0,1.67327 0,1.30803 0.13147,-0.26293 -0.55775,1.11551 -0.17701,0.35401 0.18082,2.60795 0,2.78878 -0.13147,0.13146 -0.42629,-0.13147 -0.55776,0 -0.0224,0.0224 0,2.02619 0,2.23102 0,0.18592 0.0994,0.71489 0,0.55776 C 320.38469,-611.83389 320.23652,-612.44004 320,-613"
           style="fill:none;stroke:#000000;stroke-width:3;stroke-linecap:butt;stroke-linejoin:miter;stroke-miterlimit:4;stroke-opacity:1;stroke-dasharray:none" />
        <path
           transform="matrix(2.0543479,0,0,2.25,-1054.3479,560.00001)"
           inkscape:connector-curvature="0"
           id="path5722"
           d="m 90,-613 c 1.61788,7.46028 -2.622615,0.75463 -3.547855,1.67987 -0.131464,0.13146 0.08315,0.39146 0,0.55775 -0.117585,0.23517 -0.44017,0.32259 -0.557756,0.55776 -0.08315,0.16629 0.08315,0.39146 0,0.55775 -0.117585,0.23518 -0.44017,0.32259 -0.557755,0.55776 -0.08315,0.16629 0.131464,0.42629 0,0.55776 -0.131465,0.13146 -0.426292,-0.13147 -0.557756,0 -0.131464,0.13146 0.08314,0.39146 0,0.55775 -0.117585,0.23517 -0.440171,0.32259 -0.557756,0.55776 -0.08314,0.16629 0.131464,0.42629 0,0.55775 -0.131464,0.13147 -0.426291,-0.13146 -0.557756,0 -0.131464,0.13147 0.08315,0.39147 0,0.55776 -0.23517,0.47034 -0.880341,0.64517 -1.115511,1.11551 -0.08315,0.16629 0.131464,0.42629 0,0.55776 -0.131464,0.13146 -0.426292,-0.13147 -0.557756,0 -0.141415,0.14141 0.141415,1.53185 0,1.67326 -0.262929,0.26293 -0.78293,-0.16629 -1.115511,0 -0.166291,0.0832 0.08315,0.39147 0,0.55776 -0.117586,0.23517 -0.440171,0.32259 -0.557756,0.55776 -0.08315,0.16629 0.131464,0.42629 0,0.55775 -0.131465,0.13147 -0.426292,-0.13146 -0.557756,0 -0.262929,0.26293 0.262929,0.85258 0,1.11551 -0.131464,0.13147 -0.426292,-0.13146 -0.557756,0 -0.131464,0.13147 0.08315,0.39147 0,0.55776 -0.117585,0.23517 -0.44017,0.32258 -0.557756,0.55775 -0.08315,0.1663 0.08315,0.39147 0,0.55776 -0.117585,0.23517 -0.44017,0.32259 -0.557755,0.55776 -0.08315,0.16629 0.08315,0.39146 0,0.55775 -0.235171,0.47034 -0.880341,0.64517 -1.115512,1.11551 -0.08315,0.16629 0.131464,0.42629 0,0.55776 -0.131464,0.13146 -0.426291,-0.13147 -0.557756,0 -0.262928,0.26293 0.262929,0.85258 0,1.11551 -0.131464,0.13146 -0.426291,-0.13146 -0.557755,0 -0.131465,0.13146 0.08315,0.39147 0,0.55776 -0.117586,0.23517 -0.440171,0.32258 -0.557756,0.55775 -0.08315,0.16629 0.131464,0.42629 0,0.55776 -0.131465,0.13146 -0.426292,-0.13147 -0.557756,0 -0.262929,0.26293 0.262929,0.85258 0,1.11551 -0.131464,0.13146 -0.371837,0 -0.557756,0 0,0.18592 0.08315,0.39146 0,0.55776 -0.117585,0.23517 -0.44017,0.32258 -0.557756,0.55775 0,1.48735 0.185919,-0.18592 -0.557755,0.55776 -0.262929,0.26293 0.262928,0.85258 0,1.11551 -0.131465,0.13146 -0.426292,-0.13147 -0.557756,0 -0.131464,0.13146 0.08315,0.39146 0,0.55775 -0.117585,0.23517 -0.440171,0.32259 -0.557756,0.55776 -0.08315,0.16629 0.131464,0.42629 0,0.55776 -0.131464,0.13146 -0.426291,-0.13147 -0.557756,0 -0.131464,0.13146 -0.131464,0.42629 0,0.55775 0.01794,0.0179 1.537997,0 1.673268,0 1.308036,0 -0.262929,0.13147 1.115511,-0.55775 0.146657,-0.0733 1.939361,0 2.231023,0 1.487349,0 2.974698,0 4.462047,0 0.371837,0 0.743674,0 1.115511,0 0.185919,0 0.403062,0.10312 0.557756,0 0.437539,-0.2917 0.677972,-0.82382 1.115511,-1.11552 0.154694,-0.10312 0.371838,0 0.557756,0 0.371837,0 0.743675,0 1.115512,0 0.371837,0 0.743674,0 1.115511,0 0.185919,0 0.474611,-0.16629 0.557756,0 0.166291,0.33259 -0.166291,0.78293 0,1.11552 0.02816,0.0563 1.620034,0 2.231023,0 0.557756,0 1.115512,0 1.673267,0 0.371838,0 1.454513,0.15277 1.115512,0 C 91.380774,-587.62909 90.676568,-587.77888 90,-588"
           style="fill:none;stroke:#000000;stroke-width:3;stroke-linecap:butt;stroke-linejoin:miter;stroke-miterlimit:4;stroke-opacity:1;stroke-dasharray:none" />
        <g
           transform="matrix(0.96103493,-0.30275335,0.25238985,0.96103493,-1568.0834,120.98662)"
           id="g5760">
          <rect
             ry="12"
             rx="11.944444"
             y="-808"
             x="1000"
             height="300"
             width="60"
             id="rect5752"
             style="fill:#ffffff;fill-opacity:1;stroke:#000000;stroke-width:6.4498477;stroke-miterlimit:4;stroke-opacity:1;stroke-dasharray:none;stroke-dashoffset:0" />
          <rect
             ry="5"
             rx="5"
             y="-508"
             x="1010"
             height="60"
             width="40"
             id="rect5754"
             style="fill:#000000;fill-opacity:1;stroke:#000000;stroke-width:6.4498477;stroke-miterlimit:4;stroke-opacity:1;stroke-dasharray:none;stroke-dashoffset:0" />
        </g>
      </g>
    </g>
  </g>
</svg>
